<svg width="109" height="34" viewBox="0 0 109 34" fill="none" xmlns="http://www.w3.org/2000/svg">
<g clip-path="url(#clip0_1_2)">
<path d="M35.6182 14.953C35.6113 14.5288 35.7306 14.1121 35.9615 13.7561C36.1924 13.4002 36.5244 13.1211 36.9146 12.9545C37.3048 12.7879 37.7356 12.7414 38.1524 12.8208C38.5692 12.9003 38.9529 13.1021 39.2545 13.4006C39.556 13.699 39.762 14.0806 39.8458 14.4965C39.9295 14.9124 39.8877 15.3438 39.7252 15.7358C39.5626 16.1277 39.2867 16.4623 38.9332 16.6969C38.5796 16.9316 38.1641 17.0556 37.7398 17.053C37.4615 17.0587 37.1849 17.0083 36.9263 16.9051C36.6678 16.8018 36.4328 16.6477 36.2349 16.4518C36.037 16.256 35.8804 16.0224 35.7745 15.7649C35.6685 15.5075 35.6155 15.2314 35.6182 14.953ZM34.8712 29.507L34.8629 29.516H34.938C34.9144 29.5165 34.891 29.5135 34.8682 29.507H34.8712Z" fill="white"/>
<path d="M41.0269 29.262C41.0269 29.262 41.0349 29.517 40.8149 29.517H34.937C34.9147 29.5172 34.8926 29.5141 34.8711 29.508C34.7191 29.463 34.7251 29.264 34.7251 29.262C34.7251 28.788 36.0869 28.302 36.0869 27.935V22.1861C36.0869 20.6551 35.8868 20.458 35.0498 20.21L34.728 20.1301C34.6851 20.117 34.6473 20.0905 34.6206 20.0545C34.5939 20.0185 34.5796 19.9748 34.5796 19.93C34.5796 19.8851 34.5939 19.8415 34.6206 19.8055C34.6473 19.7695 34.6851 19.743 34.728 19.73L39.1211 18.493C39.1855 18.4749 39.2531 18.4721 39.3188 18.4845C39.3846 18.497 39.4467 18.5245 39.5 18.5649C39.5533 18.6052 39.5966 18.6575 39.6265 18.7173C39.6563 18.7772 39.6717 18.8432 39.6719 18.9101V27.939C39.6609 28.301 41.0269 28.787 41.0269 29.262Z" fill="white"/>
<path d="M78.54 29.516H78.4653L78.4721 29.507C78.4942 29.5133 78.517 29.5163 78.54 29.516Z" fill="white"/>
<path d="M78.4731 29.507C78.4949 29.5132 78.5173 29.5162 78.54 29.516H78.4653L78.4731 29.507Z" fill="white"/>
<path d="M42.8777 28.17L42.616 24.981C42.6112 24.9204 42.6191 24.8594 42.639 24.802C42.6588 24.7445 42.69 24.6918 42.7313 24.647C42.7725 24.6023 42.8225 24.5666 42.8782 24.5422C42.9339 24.5177 42.9942 24.505 43.055 24.505C43.1399 24.5058 43.2228 24.531 43.2938 24.5776C43.3647 24.6242 43.4205 24.6904 43.4549 24.768L44.3299 26.76C44.6544 27.5036 45.1942 28.133 45.8797 28.567C46.5652 29.001 47.3651 29.2198 48.1761 29.195C50.2501 29.195 51.2371 28.158 51.2371 26.554C51.2371 24.505 49.3849 23.863 47.2879 23.123C44.8689 22.284 42.845 21.346 42.845 18.68C42.845 15.792 45.215 13.768 48.4729 13.768C49.6024 13.7936 50.7233 13.9701 51.806 14.2929C51.9682 14.337 52.1399 14.3332 52.3001 14.2819L52.5438 14.2039C52.6214 14.1791 52.704 14.1728 52.7845 14.1855C52.865 14.1982 52.9414 14.2296 53.0076 14.2772C53.0738 14.3247 53.1281 14.387 53.1658 14.4592C53.2036 14.5314 53.2236 14.6115 53.2249 14.6929L53.282 18.368C53.2828 18.425 53.272 18.4815 53.2508 18.5344C53.2295 18.5872 53.198 18.6353 53.158 18.6759C53.118 18.7164 53.0704 18.7487 53.0179 18.7707C52.9653 18.7927 52.9088 18.804 52.8519 18.804C52.7747 18.8041 52.699 18.7832 52.6326 18.7437C52.5663 18.7043 52.5118 18.6478 52.4749 18.58L50.7391 15.38C50.6232 15.1645 50.4633 14.9758 50.2698 14.8261C50.0764 14.6764 49.8537 14.569 49.616 14.5109C49.209 14.4186 48.7922 14.375 48.3748 14.3809C46.7218 14.3809 45.66 15.344 45.66 16.581C45.66 18.26 47.2889 18.803 49.2879 19.494C51.9289 20.358 54.0271 21.4439 54.0271 24.4799C54.0271 27.4169 51.5841 29.836 48.0271 29.836C46.5969 29.8664 45.1695 29.6878 43.7908 29.306C43.5419 29.2306 43.3219 29.0818 43.159 28.8791C42.9961 28.6764 42.8978 28.4293 42.8777 28.17Z" fill="white"/>
<path d="M64.262 27.887C63.778 28.4666 63.1772 28.9377 62.4989 29.2696C61.8205 29.6014 61.0797 29.7866 60.325 29.813C58.055 29.813 56.9928 28.628 57.0418 26.185L57.1361 20.544C57.1365 20.5102 57.1301 20.4767 57.1175 20.4453C57.1049 20.414 57.086 20.3854 57.0623 20.3614C57.0386 20.3373 57.0105 20.3182 56.9793 20.3051C56.9482 20.292 56.915 20.2851 56.8812 20.2849H55.806C55.6886 20.2847 55.576 20.238 55.493 20.1549C55.41 20.0719 55.3634 19.9594 55.3631 19.842V19.604C55.3636 19.3792 55.4532 19.1636 55.6121 19.0045C55.771 18.8455 55.9864 18.7558 56.2113 18.755H56.6878C56.8036 18.7556 56.9153 18.7104 56.9979 18.6293C57.0805 18.5482 57.1276 18.4378 57.1292 18.3221L57.1458 17.388V16.558C57.1458 16.4356 57.1863 16.3165 57.2606 16.2191C57.3348 16.1218 57.4389 16.0514 57.557 16.019L60.015 15.34C60.0797 15.3218 60.1477 15.319 60.2137 15.3317C60.2797 15.3444 60.342 15.3724 60.3953 15.4134C60.4487 15.4543 60.4915 15.5071 60.5208 15.5677C60.5501 15.6282 60.5648 15.6948 60.5638 15.762L60.5301 17.82V17.857V18.449C60.5292 18.489 60.536 18.5287 60.5506 18.566C60.5653 18.6032 60.5876 18.6371 60.6156 18.6657C60.6435 18.6943 60.6768 18.7169 60.7137 18.7325C60.7506 18.748 60.7899 18.756 60.8299 18.756H63.6532C63.7313 18.7557 63.8085 18.7729 63.8792 18.8063C63.9499 18.8397 64.0124 18.8884 64.0618 18.949C64.1113 19.0096 64.1463 19.0803 64.1649 19.1563C64.1834 19.2322 64.1852 19.3114 64.1693 19.388L64.0692 19.868C64.0442 19.986 63.9793 20.0918 63.8856 20.1678C63.7918 20.2437 63.6747 20.285 63.554 20.2849H60.827C60.7399 20.2849 60.6565 20.3193 60.5946 20.3805C60.5326 20.4417 60.497 20.5249 60.4959 20.612L60.4261 25.469C60.4021 27.419 61.0439 28.037 62.3519 28.037C62.9392 28.0423 63.5173 27.8885 64.0242 27.592C64.064 27.5601 64.1147 27.5454 64.1654 27.5511C64.216 27.5567 64.2624 27.5822 64.2943 27.622C64.3261 27.6618 64.3404 27.7126 64.3348 27.7632C64.3292 27.8139 64.3038 27.8602 64.264 27.892L64.262 27.887Z" fill="white"/>
<path d="M64.7679 24.11C64.7679 20.902 67.3352 18.3099 71.0882 18.3099C71.866 18.2545 72.6464 18.3615 73.3807 18.624C74.1149 18.8865 74.7865 19.2989 75.3528 19.8349C75.9192 20.371 76.3682 21.019 76.6707 21.7378C76.9732 22.4565 77.1228 23.2303 77.1102 24.01C77.1102 27.268 74.5678 29.86 70.7908 29.86C70.0085 29.9165 69.2232 29.8086 68.4852 29.5433C67.7471 29.278 67.0725 28.8611 66.5052 28.3196C65.9379 27.778 65.4904 27.1235 65.1912 26.3985C64.892 25.6735 64.7477 24.894 64.7679 24.11ZM73.2098 24.3099C73.2098 21.3979 72.716 19.9409 72.075 19.2989C71.9306 19.1535 71.7569 19.0408 71.5652 18.9684C71.3736 18.8959 71.1686 18.8653 70.9642 18.8789C69.4342 18.8789 68.6199 20.8049 68.6199 23.8399C68.6199 26.8019 69.0878 28.2339 69.7298 28.9249C69.8857 29.0682 70.0687 29.1791 70.2679 29.2512C70.467 29.3233 70.6784 29.3552 70.8899 29.3449C72.3949 29.3429 73.2098 27.295 73.2098 24.308V24.3099Z" fill="white"/>
<path d="M78.4731 29.507L78.4662 29.516H78.5409C78.518 29.5163 78.4952 29.5133 78.4731 29.507Z" fill="white"/>
<path d="M88.5641 20.285C88.5587 20.7291 88.3848 21.1546 88.0778 21.4756C87.7707 21.7965 87.3537 21.989 86.9103 22.014C86.4676 22.0094 86.0392 21.8559 85.6945 21.5781C85.3498 21.3004 85.1085 20.9146 85.0099 20.483C84.3219 20.656 83.732 21.483 83.191 23.248V27.937C83.191 28.255 84.2208 28.665 84.4908 29.078C84.5297 29.1324 84.5516 29.1972 84.5538 29.264C84.5538 29.264 84.5619 29.519 84.3419 29.519H78.5421C78.5198 29.5193 78.4976 29.5162 78.4762 29.51L78.4679 29.519C78.4453 29.5192 78.4228 29.5161 78.401 29.51C78.249 29.465 78.255 29.266 78.255 29.264C78.255 28.808 79.506 28.343 79.609 27.984V22.1839C79.609 20.6529 79.4089 20.455 78.5719 20.208L78.2501 20.128C78.2024 20.116 78.1604 20.0874 78.1315 20.0476C78.1026 20.0077 78.0885 19.9591 78.0919 19.91C78.0955 19.8672 78.1124 19.8264 78.1398 19.7932C78.1671 19.76 78.2039 19.7358 78.2452 19.724L82.6813 18.489C82.746 18.4708 82.814 18.468 82.88 18.4807C82.946 18.4934 83.0079 18.5214 83.0612 18.5624C83.1145 18.6033 83.1579 18.6561 83.1871 18.7167C83.2164 18.7772 83.2311 18.8438 83.2301 18.911L83.1959 21.006V21.4709H83.2628C84.0518 19.1509 85.4039 18.308 86.5949 18.308C86.8591 18.2884 87.1249 18.3262 87.3732 18.4188C87.6215 18.5114 87.8468 18.6565 88.0338 18.8442C88.2208 19.032 88.3646 19.2579 88.4562 19.5066C88.5477 19.7552 88.5847 20.0208 88.5641 20.285Z" fill="white"/>
<path d="M90.066 14.953C90.0591 14.5288 90.1784 14.1121 90.4093 13.7561C90.6402 13.4002 90.9722 13.1211 91.3624 12.9545C91.7526 12.7879 92.1834 12.7414 92.6002 12.8208C93.017 12.9003 93.4007 13.1021 93.7023 13.4006C94.0038 13.699 94.2098 14.0806 94.2936 14.4965C94.3773 14.9124 94.3355 15.3438 94.173 15.7358C94.0104 16.1277 93.7345 16.4623 93.381 16.6969C93.0274 16.9316 92.6119 17.0556 92.1876 17.053C91.9092 17.0587 91.6327 17.0083 91.3741 16.9051C91.1156 16.8018 90.8806 16.6477 90.6827 16.4518C90.4848 16.256 90.3282 16.0224 90.2223 15.7649C90.1163 15.5075 90.0633 15.2314 90.066 14.953Z" fill="white"/>
<path d="M102.979 27.492L102.905 27.4669C101.745 28.8249 100.705 29.8119 99.3261 29.8119C98.9839 29.8241 98.6424 29.7686 98.3217 29.6485C98.0011 29.5284 97.7075 29.3461 97.4575 29.1121C97.2074 28.8781 97.0058 28.5971 96.8647 28.2851C96.7236 27.9731 96.6458 27.6362 96.6352 27.294C96.6352 25.369 98.388 24.209 102.979 22.974L103.003 22.283C103.077 20.605 102.164 19.2959 100.51 19.2959C99.5962 19.2959 99.2011 19.5429 99.2011 19.7899C99.2011 19.9629 99.9912 20.604 99.9912 21.32C99.9647 21.7323 99.7754 22.1173 99.4653 22.3903C99.1552 22.6633 98.7492 22.8021 98.3369 22.776C97.4479 22.776 96.708 22.307 96.708 21.443C96.708 19.616 100.14 18.308 102.608 18.308C105.446 18.308 106.68 19.518 106.582 22.331L106.382 26.675C106.333 27.638 106.703 28.008 107.246 28.008C107.546 28.008 107.879 27.714 108.172 27.396C108.189 27.3769 108.211 27.3616 108.235 27.3511C108.259 27.3406 108.284 27.3351 108.31 27.3351C108.336 27.3351 108.361 27.3406 108.385 27.3511C108.409 27.3616 108.431 27.3769 108.448 27.396C108.478 27.4289 108.496 27.4715 108.497 27.516C108.499 27.5606 108.484 27.6041 108.456 27.6389C107.727 28.5499 106.521 29.839 105.247 29.839C104.04 29.837 103.151 29.022 102.979 27.492ZM102.855 26.825L103.003 23.5299C100.732 24.1469 100.041 24.924 100.041 26.109C100.014 26.3113 100.031 26.5169 100.091 26.7119C100.151 26.907 100.253 27.0866 100.389 27.2387C100.525 27.3907 100.692 27.5115 100.879 27.5927C101.067 27.6739 101.269 27.7136 101.473 27.709C101.752 27.6648 102.018 27.5634 102.256 27.4113C102.494 27.2592 102.698 27.0596 102.855 26.825Z" fill="white"/>
<path d="M105.118 15.8539V14.049H104.48V13.771H106.08V14.049H105.444V15.8539H105.118Z" fill="white"/>
<path d="M108.203 15.854V14.32H108.193L107.565 15.837H107.325L106.696 14.32H106.686V15.853H106.386V13.77H106.761L107.435 15.414H107.448L108.12 13.77H108.495V15.853L108.203 15.854Z" fill="white"/>
<path d="M95.4333 29.262C95.4333 29.262 95.4409 29.517 95.2209 29.517H89.3459C89.3232 29.5172 89.3008 29.5141 89.279 29.508C89.127 29.463 89.133 29.264 89.133 29.262C89.133 28.788 90.4953 28.302 90.4953 27.935V22.1861C90.4953 20.6551 90.2952 20.458 89.4582 20.21L89.1359 20.1301C89.0928 20.1176 89.0552 20.0915 89.028 20.0558C89.0008 20.0202 88.9856 19.9768 88.985 19.9319C88.9845 19.8871 88.9983 19.8432 89.0246 19.8068C89.0508 19.7705 89.0883 19.7436 89.131 19.73L93.5241 18.493C93.5885 18.4749 93.6561 18.4721 93.7218 18.4845C93.7876 18.497 93.8496 18.5245 93.903 18.5649C93.9563 18.6052 93.9996 18.6575 94.0295 18.7173C94.0593 18.7772 94.0747 18.8432 94.0749 18.9101V27.939C94.0709 28.301 95.4333 28.787 95.4333 29.262Z" fill="white"/>
<path fill-rule="evenodd" clip-rule="evenodd" d="M25.2739 0C20.3499 0 17.763 3.85398 13.667 5.15698C9.69599 6.41898 7.10989 5.10999 4.73389 5.10999C0.218887 5.10999 -0.000976562 9.39204 -0.000976562 9.79504C-0.000976562 12.303 1.52496 14.688 2.98096 15.38V19.593C2.98109 19.7547 2.99576 19.9159 3.0249 20.075C3.12044 20.6162 3.37387 21.1171 3.75342 21.5146C4.13296 21.9122 4.62195 22.1885 5.1582 22.309C5.15977 22.3097 5.16136 22.3101 5.16309 22.3101C5.16481 22.3101 5.1664 22.3097 5.16797 22.309C5.5135 23.9785 6.12532 25.5817 6.97998 27.057C7.96507 28.805 9.38194 30.2712 11.0952 31.3156C12.8085 32.3599 14.761 32.9473 16.7661 33.022C18.2141 33.0412 19.64 32.6662 20.8911 31.937C21.8321 31.371 22.1718 30.0209 22.3638 28.9449C17.8428 28.3449 17.0282 25.308 16.9932 25.173C16.9677 25.0715 16.9834 24.9641 17.0371 24.8744C17.0908 24.7847 17.1779 24.7199 17.2793 24.6945C17.3807 24.669 17.4884 24.6849 17.5781 24.7386C17.6679 24.7924 17.7324 24.8795 17.7578 24.981C17.7888 25.101 18.5101 27.671 22.5381 28.181L22.5498 28.1279C22.5498 28.1279 22.7579 27.093 22.8809 26.36C22.9129 26.1694 22.8866 25.9736 22.8052 25.7983C22.7238 25.6231 22.5911 25.4764 22.4248 25.3779C22.0338 25.1449 21.4659 24.5379 21.5459 24.1379C21.6189 23.7819 22.0568 23.8379 22.2988 24.0179C23.1681 24.6607 24.1682 25.1045 25.228 25.318C25.728 25.318 26.11 25.0659 26.21 24.3359L26.2158 12.918C25.3337 12.6202 24.5643 12.059 24.0112 11.3101C23.4581 10.5612 23.1482 9.66064 23.123 8.72998C23.123 8.46298 23.287 5.30396 26.146 5.30396C26.4938 5.26402 26.8461 5.29768 27.1802 5.40259C27.5142 5.50749 27.8224 5.68134 28.085 5.91296C28.3475 6.14459 28.5584 6.42872 28.7041 6.74707C28.8498 7.06542 28.9274 7.41089 28.9312 7.76099C28.9242 7.96099 28.7671 9.30896 27.4551 9.30896C27.3508 9.30896 27.2509 9.26755 27.1772 9.19385C27.1035 9.12015 27.062 9.02025 27.062 8.91602C27.062 8.81179 27.1035 8.71176 27.1772 8.63806C27.2509 8.56436 27.3508 8.52295 27.4551 8.52295C27.5525 8.51909 27.6483 8.49561 27.7363 8.45386C27.8244 8.41211 27.9026 8.35298 27.9673 8.28003C28.0319 8.20708 28.0815 8.12176 28.1123 8.0293C28.1431 7.93684 28.1549 7.83909 28.147 7.74194C28.1609 7.48609 28.1082 7.23101 27.9941 7.00159C27.88 6.77216 27.7085 6.57628 27.4961 6.43298C27.1181 6.20487 26.6847 6.08522 26.2432 6.08704C25.9097 6.08488 25.5793 6.15298 25.2739 6.28699C24.8343 6.52933 24.4731 6.8918 24.2319 7.33203C23.9907 7.77226 23.8797 8.27202 23.9121 8.77295C23.9338 9.71049 24.3224 10.6022 24.9941 11.2566C25.6659 11.911 26.5671 12.2758 27.5049 12.2729C31.9189 12.2919 32.1738 7.58502 32.1738 5.74402C32.1738 2.21802 28.6469 0 25.2739 0ZM21.687 17.4869C21.591 17.738 21.4393 17.9642 21.2437 18.1484C21.048 18.3327 20.8135 18.4703 20.5571 18.551C20.2257 18.6687 19.8766 18.7292 19.5249 18.73C18.9007 18.6987 18.2927 18.5209 17.75 18.2109C17.2073 17.901 16.745 17.4678 16.4009 16.946C16.3408 16.8605 16.3174 16.7546 16.3354 16.6516C16.3535 16.5487 16.4115 16.457 16.4971 16.397C16.5826 16.3369 16.6885 16.3133 16.7915 16.3313C16.8945 16.3493 16.9858 16.4075 17.0459 16.493C17.3715 17.0352 17.8649 17.4567 18.4512 17.694C19.0375 17.9312 19.6849 17.9712 20.2959 17.808C20.4386 17.7679 20.5705 17.6963 20.6816 17.5983C20.7928 17.5003 20.8804 17.3785 20.938 17.2419C20.9539 17.1924 20.9798 17.1465 21.0137 17.1071C21.0476 17.0676 21.0891 17.0353 21.1357 17.0121C21.1823 16.9889 21.2327 16.9752 21.2847 16.9719C21.3366 16.9686 21.3888 16.9759 21.438 16.993C21.5361 17.0262 21.617 17.0965 21.6636 17.189C21.7102 17.2814 21.7187 17.3884 21.687 17.4869Z" fill="#0078FF"/>
</g>
<defs>
<clipPath id="clip0_1_2">
<rect width="108.5" height="33.024" fill="white"/>
</clipPath>
</defs>
</svg>
