<svg width="32" height="33" viewBox="0 0 32 33" fill="none" xmlns="http://www.w3.org/2000/svg">
<g clip-path="url(#clip0_4_22)">
<path fill-rule="evenodd" clip-rule="evenodd" d="M25.2749 0C20.3509 0 17.764 3.85398 13.668 5.15698C9.69697 6.41898 7.11086 5.10999 4.73486 5.10999C0.219863 5.10999 0 9.39204 0 9.79504C0 12.303 1.52593 14.688 2.98193 15.38V19.593C2.98207 19.7547 2.99674 19.9159 3.02588 20.075C3.12141 20.6162 3.37485 21.1171 3.75439 21.5146C4.13394 21.9122 4.62293 22.1885 5.15918 22.309C5.16075 22.3097 5.16234 22.3101 5.16406 22.3101C5.16579 22.3101 5.16738 22.3097 5.16895 22.309C5.51447 23.9785 6.1263 25.5817 6.98096 27.057C7.96604 28.805 9.38292 30.2712 11.0962 31.3156C12.8095 32.3599 14.762 32.9473 16.7671 33.022C18.2151 33.0412 19.641 32.6662 20.8921 31.937C21.8331 31.371 22.1727 30.0209 22.3647 28.9449C17.8437 28.3449 17.0291 25.308 16.9941 25.173C16.9687 25.0715 16.9844 24.9641 17.0381 24.8744C17.0918 24.7847 17.1788 24.7199 17.2803 24.6945C17.3817 24.669 17.4894 24.6849 17.5791 24.7386C17.6688 24.7924 17.7333 24.8795 17.7588 24.981C17.7898 25.101 18.5111 27.671 22.5391 28.181L22.5508 28.1279C22.5508 28.1279 22.7588 27.093 22.8818 26.36C22.9139 26.1694 22.8875 25.9736 22.8062 25.7983C22.7248 25.6231 22.5921 25.4764 22.4258 25.3779C22.0348 25.1449 21.4669 24.5379 21.5469 24.1379C21.6199 23.7819 22.0578 23.8379 22.2998 24.0179C23.1691 24.6607 24.1692 25.1045 25.229 25.318C25.729 25.318 26.1109 25.0659 26.2109 24.3359L26.2168 12.918C25.3347 12.6202 24.5653 12.059 24.0122 11.3101C23.4591 10.5612 23.1492 9.66064 23.124 8.72998C23.124 8.46298 23.288 5.30396 26.147 5.30396C26.4948 5.26402 26.8471 5.29768 27.1812 5.40259C27.5152 5.50749 27.8234 5.68134 28.0859 5.91296C28.3485 6.14459 28.5594 6.42872 28.7051 6.74707C28.8508 7.06542 28.9284 7.41089 28.9321 7.76099C28.9251 7.96099 28.7681 9.30896 27.4561 9.30896C27.3518 9.30896 27.2519 9.26755 27.1782 9.19385C27.1045 9.12015 27.063 9.02025 27.063 8.91602C27.063 8.81179 27.1045 8.71176 27.1782 8.63806C27.2519 8.56436 27.3518 8.52295 27.4561 8.52295C27.5534 8.51909 27.6492 8.49561 27.7373 8.45386C27.8254 8.41211 27.9036 8.35298 27.9683 8.28003C28.0329 8.20708 28.0824 8.12176 28.1133 8.0293C28.1441 7.93684 28.1558 7.83909 28.1479 7.74194C28.1619 7.48609 28.1092 7.23101 27.9951 7.00159C27.881 6.77216 27.7095 6.57628 27.4971 6.43298C27.1191 6.20487 26.6856 6.08522 26.2441 6.08704C25.9107 6.08488 25.5803 6.15298 25.2749 6.28699C24.8353 6.52933 24.4741 6.8918 24.2329 7.33203C23.9917 7.77226 23.8807 8.27202 23.9131 8.77295C23.9348 9.71049 24.3234 10.6022 24.9951 11.2566C25.6669 11.911 26.5681 12.2758 27.5059 12.2729C31.9199 12.2919 32.1748 7.58502 32.1748 5.74402C32.1748 2.21802 28.6479 0 25.2749 0ZM21.688 17.4869C21.592 17.738 21.4403 17.9642 21.2446 18.1484C21.0489 18.3327 20.8145 18.4703 20.5581 18.551C20.2267 18.6687 19.8775 18.7292 19.5259 18.73C18.9017 18.6987 18.2937 18.5209 17.751 18.2109C17.2082 17.901 16.746 17.4678 16.4019 16.946C16.3418 16.8605 16.3184 16.7546 16.3364 16.6516C16.3544 16.5487 16.4125 16.457 16.498 16.397C16.5836 16.3369 16.6895 16.3133 16.7925 16.3313C16.8954 16.3493 16.9868 16.4075 17.0469 16.493C17.3725 17.0352 17.8659 17.4567 18.4521 17.694C19.0384 17.9312 19.6858 17.9712 20.2969 17.808C20.4395 17.7679 20.5715 17.6963 20.6826 17.5983C20.7938 17.5003 20.8814 17.3785 20.939 17.2419C20.9549 17.1924 20.9807 17.1465 21.0146 17.1071C21.0486 17.0676 21.0901 17.0353 21.1367 17.0121C21.1833 16.9889 21.2337 16.9752 21.2856 16.9719C21.3376 16.9686 21.3898 16.9759 21.439 16.993C21.537 17.0262 21.618 17.0965 21.6646 17.189C21.7111 17.2814 21.7197 17.3884 21.688 17.4869Z" fill="#0078FF"/>
</g>
<defs>
<clipPath id="clip0_4_22">
<rect width="32" height="33" fill="white"/>
</clipPath>
</defs>
</svg>
