<?xml version="1.0" standalone="no"?>
<!DOCTYPE svg PUBLIC "-//W3C//DTD SVG 1.1//EN" "http://www.w3.org/Graphics/SVG/1.1/DTD/svg11.dtd" >
<svg xmlns="http://www.w3.org/2000/svg" xmlns:xlink="http://www.w3.org/1999/xlink" version="1.1">
<metadata>
Created by FontForge 20190801 at Sat Oct 30 14:19:18 2021
 By www-data
copyright missing
</metadata>
<defs>
<font id="iStoriaBold" horiz-adv-x="0" >
  <font-face 
    font-family="iStoriaBold"
    font-weight="700"
    font-stretch="normal"
    units-per-em="1000"
    panose-1="0 0 8 0 0 0 0 0 0 0"
    ascent="800"
    descent="-200"
    x-height="513"
    cap-height="715"
    bbox="-63 -633 1437 1028"
    underline-thickness="50"
    underline-position="-100"
    unicode-range="U+0020-FEFC"
  />
<missing-glyph horiz-adv-x="695" 
 />
    <glyph glyph-name="uniFDF2" unicode="&#x627;&#xfedf;&#xfee0;&#xfeea;" horiz-adv-x="1502" arabic-form="isolated" 
d="M776 842h-60v40v39.5t-2 33t-6.5 35.5t-12.5 32h60q8 -16 12.5 -31.5t6.5 -36.5t2.5 -32t0 -41t-0.5 -39zM695 648q-32 0 -52.5 21.5t-20.5 54.5v45l57 14v-59q0 -19 16 -19q18 0 18 22v58l58 15v-66q0 -16 15 -16q19 0 19 23v59l57 15v-74q0 -36 -18 -58t-50 -22
q-29 0 -45 17q-21 -30 -54 -30zM892 137l79 1v577h158v-715h-251q-69 0 -107 51q-34 -51 -100 -51h-141q-100 0 -140 73q-64 -27 -125 -27q-90 0 -149 55.5t-59 149.5q0 96 66.5 158t167.5 62h221v-279q0 -22 12 -38.5t38 -16.5h61q22 0 36 14.5t14 36.5v389h159v-389
q0 -22 13.5 -36.5t35.5 -14.5h11zM1279 -1v716h158v-716h-158zM369 200v140h-83q-43 0 -69.5 -23.5t-26.5 -61.5t25 -58t64 -20q47 0 90 23z" />
    <glyph glyph-name="uniFEF5" unicode="&#xfedf;&#xfe82;" horiz-adv-x="788" arabic-form="isolated" 
d="M352 623q-34 0 -81.5 26t-70.5 26q-33 0 -69 -31v81q39 31 69 31q24 0 71.5 -26t80.5 -26q55 0 106 44v-81q-49 -44 -106 -44zM572 137v575h155v-712h-648v137h146v413h155v-413h192z" />
    <glyph glyph-name="uniFEF6" unicode="&#xfee0;&#xfe82;" horiz-adv-x="776" arabic-form="final" 
d="M329 623q-34 0 -81.5 26t-70.5 26q-33 0 -69 -31v81q39 31 69 31q24 0 71.5 -26t80.5 -26q55 0 106 44v-81q-49 -44 -106 -44zM704 137h77q12 0 12 -11v-114q0 -12 -12 -12h-725v137h146v413h155v-413h192v575h155v-575z" />
    <glyph glyph-name="uniFEF7" unicode="&#xfedf;&#xfe84;" horiz-adv-x="788" arabic-form="isolated" 
d="M433 618h-95h-3h-162v77h31q-8 22 -8 45q0 52 38 87q39 37 104 37q40 0 72 -12v-79q-27 13 -59 13q-23 0 -38 -12.5t-15 -33.5q0 -19 12.5 -31t32.5 -14h90v-77zM572 137v575h155v-712h-648v137h146v413h155v-413h192z" />
    <glyph glyph-name="uniFEF8" unicode="&#xfee0;&#xfe84;" horiz-adv-x="776" arabic-form="final" 
d="M409 618h-95h-3h-162v77h31q-8 22 -8 45q0 52 38 87q39 37 104 37q40 0 72 -12v-79q-27 13 -59 13q-23 0 -38 -12.5t-15 -33.5q0 -19 12.5 -31t32.5 -14h90v-77zM704 137h77q12 0 12 -11v-114q0 -12 -12 -12h-725v137h146v413h155v-413h192v575h155v-575z" />
    <glyph glyph-name="uniFEF9" unicode="&#xfedf;&#xfe88;" horiz-adv-x="788" arabic-form="isolated" 
d="M572 137v575h155v-712h-648v137h146v413h155v-413h192zM293 -183q0 -19 12.5 -31t32.5 -14h90v-77h-95h-3h-162v77h31q-8 22 -8 45q0 52 38 87q39 37 104 37q41 0 72 -12v-79q-27 13 -59 13q-23 0 -38 -12.5t-15 -33.5z" />
    <glyph glyph-name="uniFEFA" unicode="&#xfee0;&#xfe88;" horiz-adv-x="776" arabic-form="final" 
d="M704 137h77q12 0 12 -11v-114q0 -12 -12 -12h-725v137h146v413h155v-413h192v575h155v-575zM270 -183q0 -19 12.5 -31t32.5 -14h90v-77h-95h-3h-162v77h31q-8 22 -8 45q0 52 38 87q39 37 104 37q40 0 72 -12v-79q-27 13 -59 13q-23 0 -38 -12.5t-15 -33.5z" />
    <glyph glyph-name="uniFEFB" unicode="&#xfedf;&#xfe8e;" horiz-adv-x="788" arabic-form="isolated" 
d="M572 137v575h155v-712h-648v137h146v413h155v-413h192z" />
    <glyph glyph-name="uniFEFC" unicode="&#xfee0;&#xfe8e;" horiz-adv-x="776" arabic-form="final" 
d="M704 137h77q12 0 12 -11v-114q0 -12 -12 -12h-725v137h146v413h155v-413h192v575h155v-575z" />
    <glyph glyph-name="uni06440671" unicode="&#xfedf;&#xfb51;" horiz-adv-x="788" 
d="M172 629v58h32l-2 114h65l1 -39q37 42 77 42q38 0 60.5 -28t22.5 -71v-76h-256zM329 742q-17 0 -33.5 -14t-24.5 -29v-12h92v19q0 36 -34 36zM572 137v575h155v-712h-648v137h146v413h155v-413h192z" />
    <glyph glyph-name="uni06440671.fina" unicode="&#xfee0;&#xfb51;" horiz-adv-x="776" 
d="M149 629v58h32l-2 114h65l1 -39q37 42 77 42q38 0 60.5 -28t22.5 -71v-76h-256zM306 742q-17 0 -33.5 -14t-24.5 -29v-12h92v19q0 36 -34 36zM704 137h77q12 0 12 -11v-114q0 -12 -12 -12h-725v137h146v413h155v-413h192v575h155v-575z" />
    <glyph glyph-name="uni066E.init" unicode="&#x66e;" horiz-adv-x="344" 
d="M286 0h-293q-12 0 -12 12v114q0 11 12 11l135 1v284h158v-422z" />
    <glyph glyph-name="uni066E.medi" unicode="&#x66e;" horiz-adv-x="365" 
d="M306 138h61v-138h-64q-71 0 -109 52q-37 -52 -112 -52h-85q-12 0 -12 12v114q0 11 12 11l51 1q22 0 35.5 14t13.5 36v234h159v-234q0 -22 14 -36t36 -14z" />
    <glyph glyph-name="uni066E.fina" unicode="&#x66e;" horiz-adv-x="1016" 
d="M745 0l-438 -1q-109 0 -180 66.5t-71 170.5v138h146v-130q0 -48 33.5 -77t82.5 -29h392q22 0 36 14.5t14 36.5v247h158v-248q0 -22 14.5 -36t35.5 -14h44q12 0 12 -11v-115q0 -12 -12 -12h-24q-75 0 -121 63q-48 -63 -122 -63z" />
    <glyph glyph-name="uni066F.fina" unicode="&#x66f;" horiz-adv-x="834" 
d="M778 137h54q11 0 11 -11v-114q0 -12 -11 -12h-60q-22 -123 -120.5 -198t-257.5 -75q-157 0 -256.5 93t-99.5 231v175h148v-152q0 -85 60 -141.5t170 -56.5q76 0 131.5 34t72.5 91h-75q-108 0 -176 64.5t-68 164.5q0 95 66.5 160.5t170.5 65.5q112 0 176 -64.5t64 -166.5
v-88zM545 138h78v88q0 41 -23 66.5t-61 25.5q-37 0 -59.5 -25.5t-22.5 -62.5q0 -42 24 -67t64 -25z" />
    <glyph glyph-name="uni06A1.init" unicode="&#x6a1;" horiz-adv-x="589" 
d="M294 455q110 0 174.5 -63.5t64.5 -163.5v-228h-536q-11 0 -11 12v115q0 11 11 11h76q-18 42 -18 91q0 97 67.5 161.5t171.5 64.5zM295 138h82v90q0 39 -23 64t-59 25q-37 0 -60.5 -24.5t-23.5 -63.5q0 -40 24 -65.5t60 -25.5z" />
    <glyph glyph-name="uni06A1.medi" unicode="&#x6a1;" horiz-adv-x="587" 
d="M536 137h53q12 0 12 -11v-115q0 -11 -12 -11h-586q-12 0 -12 12v115q0 10 12 10h73q-19 44 -19 94q0 97 68 161t172 64q110 0 174.5 -63.5t64.5 -163.5v-92zM297 318q-36 0 -60 -24.5t-24 -63.5q0 -40 24 -65.5t61 -25.5h82v90q0 39 -23.5 64t-59.5 25z" />
    <glyph glyph-name="uni06A1.fina" unicode="&#x6a1;" horiz-adv-x="1102" 
d="M1035 137h64q12 0 12 -11v-115q0 -5 -3.5 -8.5t-8.5 -3.5l-793 1q-109 0 -180 66.5t-71 170.5v148h146v-140q0 -49 34 -78t82 -29h259q-20 43 -20 95q0 97 68 161.5t172 64.5q110 0 174.5 -63.5t64.5 -163.5v-95zM796 321q-36 0 -59.5 -24.5t-23.5 -63.5
q0 -40 23.5 -65.5t60.5 -25.5h82v90q0 39 -23.5 64t-59.5 25z" />
    <glyph glyph-name="uniFB51" unicode="&#x671;" horiz-adv-x="294" arabic-form="final" 
d="M59 771v1h-6v-1h-42v58h32l-2 115h65l1 -39q37 42 77 42q38 0 60.5 -28t22.5 -71v-77h-208zM168 884q-17 0 -33.5 -14t-24.5 -29v-12h92v20q0 35 -34 35zM265 138h30v-138h-78q-75 0 -118 43t-43 118v554h158v-523q0 -22 12.5 -38t38.5 -16z" />
    <glyph glyph-name="uniFB6B" unicode="&#x6a4;" horiz-adv-x="1102" arabic-form="final" 
d="M782 691q-28 0 -48.5 19.5t-20.5 46.5q0 28 20.5 48t48.5 20q27 0 46.5 -20t19.5 -48q0 -27 -19.5 -46.5t-46.5 -19.5zM700 549q-29 0 -49 19t-20 46q0 29 20 48.5t49 19.5q27 0 46 -20t19 -48q0 -27 -19 -46t-46 -19zM800 614q0 28 20 48t48 20t47 -20t19 -48
q0 -27 -19.5 -46.5t-46.5 -19.5q-28 0 -48 19.5t-20 46.5zM1035 137h64q12 0 12 -11v-115q0 -5 -3.5 -8.5t-8.5 -3.5l-793 1q-109 0 -180 66.5t-71 170.5v148h146v-140q0 -49 34 -78t82 -29h259q-20 43 -20 95q0 97 68 161.5t172 64.5q110 0 174.5 -63.5t64.5 -163.5v-95z
M796 321q-36 0 -59.5 -24.5t-23.5 -63.5q0 -40 23.5 -65.5t60.5 -25.5h82v90q0 39 -23.5 64t-59.5 25z" />
    <glyph glyph-name="uniFB6C" unicode="&#x6a4;" horiz-adv-x="589" arabic-form="initial" 
d="M299 693q-28 0 -48.5 19.5t-20.5 46.5q0 28 20.5 48t48.5 20q27 0 46.5 -20t19.5 -48q0 -27 -19.5 -46.5t-46.5 -19.5zM217 551q-29 0 -49 19t-20 46q0 29 20 48.5t49 19.5q27 0 46 -20t19 -48q0 -27 -19 -46t-46 -19zM317 616q0 28 19.5 48t48.5 20q28 0 47 -20t19 -48
q0 -27 -19.5 -46.5t-46.5 -19.5q-28 0 -48 19.5t-20 46.5zM294 455q110 0 174.5 -63.5t64.5 -163.5v-228h-536q-11 0 -11 12v115q0 11 11 11h76q-18 42 -18 91q0 97 67.5 161.5t171.5 64.5zM295 138h82v90q0 39 -23 64t-59 25q-37 0 -60.5 -24.5t-23.5 -63.5q0 -40 24 -65.5
t60 -25.5z" />
    <glyph glyph-name="uniFB6D" unicode="&#x6a4;" horiz-adv-x="587" arabic-form="medial" 
d="M299 693q-28 0 -48.5 19.5t-20.5 46.5q0 28 20.5 48t48.5 20q27 0 46.5 -20t19.5 -48q0 -27 -19.5 -46.5t-46.5 -19.5zM217 551q-29 0 -49 19t-20 46q0 29 20 48.5t49 19.5q27 0 46 -20t19 -48q0 -27 -19 -46t-46 -19zM317 616q0 28 19.5 48t48.5 20q28 0 47 -20t19 -48
q0 -27 -19.5 -46.5t-46.5 -19.5q-28 0 -48 19.5t-20 46.5zM536 137h53q12 0 12 -11v-115q0 -11 -12 -11h-586q-12 0 -12 12v115q0 10 12 10h73q-19 44 -19 94q0 97 68 161t172 64q110 0 174.5 -63.5t64.5 -163.5v-92zM297 318q-36 0 -60 -24.5t-24 -63.5q0 -40 24 -65.5
t61 -25.5h82v90q0 39 -23.5 64t-59.5 25z" />
    <glyph glyph-name="uniFB9F" unicode="&#x6ba;" horiz-adv-x="694" arabic-form="final" 
d="M642 137h54q5 0 10 -4.5t5 -10.5v-106q0 -6 -5 -11t-10 -5h-60q-22 -106 -104 -171.5t-189 -65.5q-125 0 -210.5 80.5t-85.5 198.5v181h135v-161q0 -63 43.5 -107t109.5 -44q68 0 112.5 43t44.5 114l-1 360h151v-291z" />
    <glyph glyph-name="uniFE82" unicode="&#x622;" horiz-adv-x="294" arabic-form="final" 
d="M34 838q-33 0 -69 -31v81q39 31 69 31q24 0 71.5 -26t80.5 -26q55 0 106 44v-81q-49 -44 -106 -44q-34 0 -81.5 26t-70.5 26zM265 138h30v-138h-78q-75 0 -118 43t-43 118v554h158v-523q0 -22 12.5 -38t38.5 -16z" />
    <glyph glyph-name="uniFE84" unicode="&#x623;" horiz-adv-x="294" arabic-form="final" 
d="M266 859v-77h-260v77h31q-8 22 -8 45q0 52 38 87q39 37 104 37q41 0 71 -12v-79q-26 13 -58 13q-23 0 -38 -12.5t-15 -33.5q0 -20 13 -32t34 -13h88zM265 138h30v-138h-78q-75 0 -118 43t-43 118v554h158v-523q0 -22 12.5 -38t38.5 -16z" />
    <glyph glyph-name="uniFE86" unicode="&#x624;" horiz-adv-x="555" arabic-form="final" 
d="M402 613v-77h-260v77h31q-8 22 -8 45q0 52 38 87q39 37 104 37q41 0 71 -12v-79q-26 13 -58 13q-23 0 -38 -12.5t-15 -33.5q0 -20 13 -32t34 -13h88zM516 137h41q11 0 11 -11v-114q0 -12 -11 -12h-41q-1 -56 -21.5 -102t-53 -74.5t-74 -50t-87 -28.5t-91 -10t-84.5 5v124
q40 -6 85 -0.5t83 17t63 41t25 71.5v7h-82q-106 0 -173.5 65.5t-67.5 163.5q0 97 67.5 161.5t171.5 64.5q110 0 174.5 -63.5t64.5 -163.5v-91zM278 138h82v90q0 39 -23 64t-59 25q-37 0 -60.5 -24.5t-23.5 -63.5q0 -40 24 -65.5t60 -25.5z" />
    <glyph glyph-name="uniFE88" unicode="&#x625;" horiz-adv-x="294" arabic-form="final" 
d="M265 138h30v-138h-78q-75 0 -118 43t-43 118v554h158v-523q0 -22 12.5 -38t38.5 -16zM193 -228h88v-77h-260v77h31q-8 22 -8 45q0 52 38 87q39 37 104 37q41 0 71 -12v-79q-26 13 -58 13q-23 0 -38 -12.5t-15 -33.5q0 -20 13 -32t34 -13z" />
    <glyph glyph-name="uniFE8A" unicode="&#x626;" horiz-adv-x="791" arabic-form="final" 
d="M300 373v-77h-260v77h31q-8 22 -8 45q0 52 38 87q39 37 104 37q41 0 71 -12v-79q-26 13 -58 13q-23 0 -38 -12.5t-15 -33.5q0 -20 13 -32t34 -13h88zM715 137h75q11 0 11 -11v-114q0 -12 -11 -12h-40q-12 -104 -97 -172.5t-248 -68.5q-367 0 -367 265q0 79 35 184h132
q-26 -95 -26 -152q0 -84 51 -116.5t174 -32.5q104 0 159.5 30.5t55.5 78.5q0 46 -99 98l83 112q75 -42 112 -89z" />
    <glyph glyph-name="uniFE8B" unicode="&#x626;" horiz-adv-x="359" arabic-form="initial" 
d="M240 605h91v-77h-96h-3h-162v77h31q-8 21 -8 44q0 52 38 88q39 36 104 36q42 0 72 -12v-79q-30 14 -59 14q-23 0 -37.5 -13t-14.5 -34q0 -19 12 -31t32 -13zM286 0h-293q-12 0 -12 12v114q0 11 12 11l135 1v284h158v-422z" />
    <glyph glyph-name="uniFE8C" unicode="&#x626;" horiz-adv-x="365" arabic-form="medial" 
d="M299 605v-77h-260v77h31q-8 22 -8 45q0 52 38 87q39 37 104 37q41 0 71 -12v-79q-26 13 -58 13q-23 0 -38 -12.5t-15 -33.5q0 -20 13 -32t34 -13h88zM306 138h61v-138h-64q-71 0 -109 52q-37 -52 -112 -52h-85q-12 0 -12 12v114q0 11 12 11l51 1q22 0 35.5 14t13.5 36
v234h159v-234q0 -22 14 -36t36 -14z" />
    <glyph glyph-name="uniFE8E" unicode="&#x627;" horiz-adv-x="294" arabic-form="final" 
d="M265 138h30v-138h-78q-75 0 -118 43t-43 118v554h158v-523q0 -22 12.5 -38t38.5 -16z" />
    <glyph glyph-name="uniFE90" unicode="&#x628;" horiz-adv-x="1016" arabic-form="final" 
d="M745 0l-438 -1q-109 0 -180 66.5t-71 170.5v138h146v-130q0 -48 33.5 -77t82.5 -29h392q22 0 36 14.5t14 36.5v247h158v-248q0 -22 14.5 -36t35.5 -14h44q12 0 12 -11v-115q0 -12 -12 -12h-24q-75 0 -121 63q-48 -63 -122 -63zM497 -227q-29 0 -50 20.5t-21 49.5
q0 28 21 48t50 20t48.5 -19.5t19.5 -48.5t-20 -49.5t-48 -20.5z" />
    <glyph glyph-name="uniFE91" unicode="&#x628;" horiz-adv-x="344" arabic-form="initial" 
d="M286 0h-293q-12 0 -12 12v114q0 11 12 11l135 1v284h158v-422zM180 -225q-29 0 -50 20.5t-21 49.5q0 28 21 48t50 20q28 0 48 -19.5t20 -48.5t-20 -49.5t-48 -20.5z" />
    <glyph glyph-name="uniFE92" unicode="&#x628;" horiz-adv-x="365" arabic-form="medial" 
d="M306 138h61v-138h-64q-71 0 -109 52q-37 -52 -112 -52h-85q-12 0 -12 12v114q0 11 12 11l51 1q22 0 35.5 14t13.5 36v234h159v-234q0 -22 14 -36t36 -14zM183 -87q29 0 48.5 -19.5t19.5 -48.5t-20 -49.5t-48 -20.5q-29 0 -50 20.5t-21 49.5q0 28 21 48t50 20z" />
    <glyph glyph-name="uniFE94" unicode="&#x629;" horiz-adv-x="586" arabic-form="final" 
d="M212 576q-29 0 -49.5 20t-20.5 49q0 28 20.5 48t49.5 20q28 0 48 -20t20 -48t-20 -48.5t-48 -20.5zM386 576q-29 0 -49.5 20t-20.5 49q0 28 20.5 48t49.5 20q28 0 48 -20t20 -48t-20 -48.5t-48 -20.5zM562 137h28q11 0 11 -11v-114q0 -12 -11 -12h-60q-99 0 -140 73
q-64 -27 -125 -27q-90 0 -149 55.5t-59 149.5q0 96 66.5 158t167.5 62h221v-279q0 -22 12 -38.5t38 -16.5zM190 255q0 -38 25 -58t64 -20q46 0 90 23v140h-83q-43 0 -69.5 -23.5t-26.5 -61.5z" />
    <glyph glyph-name="uniFE96" unicode="&#x62a;" horiz-adv-x="1016" arabic-form="final" 
d="M399 473q-29 0 -49.5 20t-20.5 49q0 28 20.5 48t49.5 20q28 0 48 -20t20 -48t-20 -48.5t-48 -20.5zM573 473q-29 0 -49.5 20t-20.5 49q0 28 20.5 48t49.5 20q28 0 48 -20t20 -48t-20 -48.5t-48 -20.5zM745 0l-438 -1q-109 0 -180 66.5t-71 170.5v138h146v-130
q0 -48 33.5 -77t82.5 -29h392q22 0 36 14.5t14 36.5v247h158v-248q0 -22 14.5 -36t35.5 -14h44q12 0 12 -11v-115q0 -12 -12 -12h-24q-75 0 -121 63q-48 -63 -122 -63z" />
    <glyph glyph-name="uniFE97" unicode="&#x62a;" horiz-adv-x="344" arabic-form="initial" 
d="M114 520q-29 0 -49.5 20t-20.5 49q0 28 20.5 48t49.5 20q28 0 48 -20t20 -48t-20 -48.5t-48 -20.5zM288 520q-29 0 -49.5 20t-20.5 49q0 28 20.5 48t49.5 20q28 0 48 -20t20 -48t-20 -48.5t-48 -20.5zM286 0h-293q-12 0 -12 12v114q0 11 12 11l135 1v284h158v-422z" />
    <glyph glyph-name="uniFE98" unicode="&#x62a;" horiz-adv-x="365" arabic-form="medial" 
d="M82 521q-29 0 -49.5 20t-20.5 49q0 28 20.5 48t49.5 20q28 0 48 -20t20 -48t-20 -48.5t-48 -20.5zM256 521q-29 0 -49.5 20t-20.5 49q0 28 20.5 48t49.5 20q28 0 48 -20t20 -48t-20 -48.5t-48 -20.5zM306 138h61v-138h-64q-71 0 -109 52q-37 -52 -112 -52h-85
q-12 0 -12 12v114q0 11 12 11l51 1q22 0 35.5 14t13.5 36v234h159v-234q0 -22 14 -36t36 -14z" />
    <glyph glyph-name="uniFE9A" unicode="&#x62b;" horiz-adv-x="1016" arabic-form="final" 
d="M485 614q-28 0 -48.5 19.5t-20.5 46.5q0 28 20.5 48t48.5 20q27 0 46.5 -20t19.5 -48q0 -27 -19.5 -46.5t-46.5 -19.5zM403 472q-29 0 -49 19t-20 46q0 29 20 48.5t49 19.5q27 0 46 -20t19 -48q0 -27 -19 -46t-46 -19zM571 471q-28 0 -48 19.5t-20 46.5q0 29 19.5 48.5
t48.5 19.5q28 0 47 -20t19 -48q0 -27 -19.5 -46.5t-46.5 -19.5zM745 0l-438 -1q-109 0 -180 66.5t-71 170.5v138h146v-130q0 -48 33.5 -77t82.5 -29h392q22 0 36 14.5t14 36.5v247h158v-248q0 -22 14.5 -36t35.5 -14h44q12 0 12 -11v-115q0 -12 -12 -12h-24q-75 0 -121 63
q-48 -63 -122 -63z" />
    <glyph glyph-name="uniFE9B" unicode="&#x62b;" horiz-adv-x="344" arabic-form="initial" 
d="M199 661q-28 0 -48.5 19.5t-20.5 46.5q0 28 20.5 48t48.5 20q27 0 46.5 -20t19.5 -48q0 -27 -19.5 -46.5t-46.5 -19.5zM117 519q-29 0 -49 19t-20 46q0 29 20 48.5t49 19.5q27 0 46 -20t19 -48q0 -27 -19 -46t-46 -19zM285 518q-28 0 -48 19.5t-20 46.5q0 28 19.5 48
t48.5 20q28 0 47 -20t19 -48q0 -27 -19.5 -46.5t-46.5 -19.5zM286 0h-293q-12 0 -12 12v114q0 11 12 11l135 1v284h158v-422z" />
    <glyph glyph-name="uniFE9C" unicode="&#x62b;" horiz-adv-x="365" arabic-form="medial" 
d="M168 662q-28 0 -48.5 19.5t-20.5 46.5q0 28 20.5 48t48.5 20q27 0 46.5 -20t19.5 -48q0 -27 -19.5 -46.5t-46.5 -19.5zM86 520q-29 0 -49 19t-20 46q0 29 20 48.5t49 19.5q27 0 46 -20t19 -48q0 -27 -19 -46t-46 -19zM186 585q0 29 20 48.5t48 19.5t47 -20t19 -48
q0 -27 -19.5 -46.5t-46.5 -19.5q-28 0 -48 19.5t-20 46.5zM306 138h61v-138h-64q-71 0 -109 52q-37 -52 -112 -52h-85q-12 0 -12 12v114q0 11 12 11l51 1q22 0 35.5 14t13.5 36v234h159v-234q0 -22 14 -36t36 -14z" />
    <glyph glyph-name="uniFE9E" unicode="&#x62c;" horiz-adv-x="715" arabic-form="final" 
d="M656 137h61q7 0 11.5 -4.5t4.5 -10.5v-106q0 -6 -4.5 -11t-11.5 -5h-373q-69 0 -106 -38.5t-37 -83.5q0 -57 43 -91t115 -34q93 0 178 48v-114q-100 -54 -209 -54q-124 0 -203.5 71.5t-79.5 181.5q0 103 74.5 177t205.5 74h177q0 84 -52 141t-137 57q-76 0 -134 -46v131
q68 54 172 54q63 0 115 -21t86.5 -55t58.5 -78.5t34.5 -90.5t10.5 -92zM286 -128q0 29 21 49t51 20q28 0 48 -20.5t20 -48.5q0 -29 -20 -49.5t-48 -20.5q-30 0 -51 20.5t-21 49.5z" />
    <glyph glyph-name="uniFE9F" unicode="&#x62c;" horiz-adv-x="570" arabic-form="initial" 
d="M531 0h-534q-11 0 -11 12v114q0 11 11 11h380q-1 96 -51.5 147t-138.5 51q-74 0 -134 -46v131q70 54 173 54q78 0 139 -31.5t95.5 -82t52.5 -108t18 -116.5v-136zM263 -215q-29 0 -50 20.5t-21 49.5q0 28 21 48t50 20t48.5 -19.5t19.5 -48.5t-20 -49.5t-48 -20.5z" />
    <glyph glyph-name="uniFEA0" unicode="&#x62c;" horiz-adv-x="590" arabic-form="medial" 
d="M532 137h61q6 0 10.5 -5t4.5 -10v-106q0 -6 -4.5 -11t-10.5 -5h-595q-11 0 -11 12v114q0 11 11 11h380q-1 96 -51.5 147t-138.5 51q-74 0 -134 -46v131q70 54 173 54q63 0 115 -21t86.5 -55t58.5 -78.5t34.5 -90.5t10.5 -92zM251 -62q29 0 48.5 -20t19.5 -48
q0 -29 -20 -49.5t-48 -20.5q-29 0 -50 20.5t-21 49.5q0 28 21 48t50 20z" />
    <glyph glyph-name="uniFEA2" unicode="&#x62d;" horiz-adv-x="715" arabic-form="final" 
d="M656 137h61q7 0 11.5 -4.5t4.5 -10.5v-106q0 -6 -4.5 -11t-11.5 -5h-373q-69 0 -106 -38.5t-37 -83.5q0 -57 43 -91t115 -34q93 0 178 48v-114q-100 -54 -209 -54q-124 0 -203.5 71.5t-79.5 181.5q0 103 74.5 177t205.5 74h177q0 84 -52 141t-137 57q-76 0 -134 -46v131
q68 54 172 54q63 0 115 -21t86.5 -55t58.5 -78.5t34.5 -90.5t10.5 -92z" />
    <glyph glyph-name="uniFEA3" unicode="&#x62d;" horiz-adv-x="570" arabic-form="initial" 
d="M531 0h-534q-11 0 -11 12v114q0 11 11 11h380q-1 96 -51.5 147t-138.5 51q-74 0 -134 -46v131q70 54 173 54q78 0 139 -31.5t95.5 -82t52.5 -108t18 -116.5v-136z" />
    <glyph glyph-name="uniFEA4" unicode="&#x62d;" horiz-adv-x="590" arabic-form="medial" 
d="M532 137h61q6 0 10.5 -5t4.5 -10v-106q0 -6 -4.5 -11t-10.5 -5h-595q-11 0 -11 12v114q0 11 11 11h380q-1 96 -51.5 147t-138.5 51q-74 0 -134 -46v131q70 54 173 54q63 0 115 -21t86.5 -55t58.5 -78.5t34.5 -90.5t10.5 -92z" />
    <glyph glyph-name="uniFEA6" unicode="&#x62e;" horiz-adv-x="715" arabic-form="final" 
d="M349 567q-29 0 -50 20.5t-21 49.5q0 28 21 48.5t50 20.5q28 0 48 -20t20 -49t-20 -49.5t-48 -20.5zM656 137h61q7 0 11.5 -4.5t4.5 -10.5v-106q0 -6 -4.5 -11t-11.5 -5h-373q-69 0 -106 -38.5t-37 -83.5q0 -57 43 -91t115 -34q93 0 178 48v-114q-100 -54 -209 -54
q-124 0 -203.5 71.5t-79.5 181.5q0 103 74.5 177t205.5 74h177q0 84 -52 141t-137 57q-76 0 -134 -46v131q68 54 172 54q63 0 115 -21t86.5 -55t58.5 -78.5t34.5 -90.5t10.5 -92z" />
    <glyph glyph-name="uniFEA7" unicode="&#x62e;" horiz-adv-x="570" arabic-form="initial" 
d="M231 580q-29 0 -50 20.5t-21 49.5q0 28 21 48.5t50 20.5q28 0 48 -20t20 -49t-20 -49.5t-48 -20.5zM531 0h-534q-11 0 -11 12v114q0 11 11 11h380q-1 96 -51.5 147t-138.5 51q-74 0 -134 -46v131q70 54 173 54q78 0 139 -31.5t95.5 -82t52.5 -108t18 -116.5v-136z" />
    <glyph glyph-name="uniFEA8" unicode="&#x62e;" horiz-adv-x="590" arabic-form="medial" 
d="M252 595q-29 0 -50 20.5t-21 49.5q0 28 21 48.5t50 20.5q28 0 48 -20t20 -49t-20 -49.5t-48 -20.5zM532 137h61q6 0 10.5 -5t4.5 -10v-106q0 -6 -4.5 -11t-10.5 -5h-595q-11 0 -11 12v114q0 11 11 11h380q-1 96 -51.5 147t-138.5 51q-74 0 -134 -46v131q70 54 173 54
q63 0 115 -21t86.5 -55t58.5 -78.5t34.5 -90.5t10.5 -92z" />
    <glyph glyph-name="uniFEAA" unicode="&#x62f;" horiz-adv-x="549" arabic-form="final" 
d="M493 137h57q8 0 8 -15v-106q0 -16 -8 -16h-503v138h285v59q-1 61 -39 92.5t-93 31.5q-61 0 -108 -28v127q67 37 152 37q104 0 176.5 -65.5t72.5 -182.5v-72z" />
    <glyph glyph-name="uniFEAC" unicode="&#x630;" horiz-adv-x="549" arabic-form="final" 
d="M246 567q-29 0 -50 20.5t-21 49.5q0 28 21 48.5t50 20.5q28 0 48 -20t20 -49t-20 -49.5t-48 -20.5zM493 137h57q8 0 8 -15v-106q0 -16 -8 -16h-503v138h285v59q-1 61 -39 92.5t-93 31.5q-61 0 -108 -28v127q67 37 152 37q104 0 176.5 -65.5t72.5 -182.5v-72z" />
    <glyph glyph-name="uniFEAE" unicode="&#x631;" horiz-adv-x="359" arabic-form="final" 
d="M284 138l73 -1q11 0 11 -11v-114q0 -12 -11 -12h-73q-4 -116 -73 -185.5t-186 -66.5q-30 0 -60 6l-1 144q21 -4 41 -6q61 -3 92 31.5t31 94.5l1 405h155v-285z" />
    <glyph glyph-name="uniFEB0" unicode="&#x632;" horiz-adv-x="359" arabic-form="final" 
d="M200 556q-29 0 -50 20.5t-21 49.5q0 28 21 48.5t50 20.5q28 0 48 -20t20 -49t-20 -49.5t-48 -20.5zM284 138l73 -1q11 0 11 -11v-114q0 -12 -11 -12h-73q-4 -116 -73 -185.5t-186 -66.5q-30 0 -60 6l-1 144q21 -4 41 -6q61 -3 92 31.5t31 94.5l1 405h155v-285z" />
    <glyph glyph-name="uniFEB2" unicode="&#x633;" horiz-adv-x="1222" arabic-form="final" 
d="M1167 137h52q12 0 12 -11v-114q0 -12 -12 -12h-247q-82 0 -122 73q-41 -73 -122 -73h-102q-20 -101 -102.5 -168t-189.5 -67q-124 0 -210 80.5t-86 197.5v182h134v-162q0 -62 44 -106t110 -44t111.5 45t45.5 105l-1 341h150v-266h62q22 0 35.5 14.5t13.5 36.5v215h159
v-216q0 -22 14 -36t36 -14h58v300h157v-301z" />
    <glyph glyph-name="uniFEB3" unicode="&#x633;" horiz-adv-x="851" arabic-form="initial" 
d="M636 138v294h156v-432h-197q-75 0 -121 63q-45 -63 -120 -63h-30q-74 0 -121 63q-46 -63 -120 -63h-86q-12 0 -12 12v114q0 11 12 11l52 1q22 0 35.5 14t13.5 36v212h158v-212q0 -21 14 -35.5t35 -14.5h18q20 0 33 14.5t13 35.5v212h158v-212q0 -22 14 -36t36 -14h59z
" />
    <glyph glyph-name="uniFEB4" unicode="&#x633;" horiz-adv-x="853" arabic-form="medial" 
d="M793 138l58 -1q11 0 11 -11v-114q0 -12 -11 -12h-255q-75 0 -121 63q-45 -63 -120 -63h-30q-74 0 -121 63q-46 -63 -120 -63h-86q-12 0 -12 12v114q0 11 12 11l52 1q22 0 35.5 14t13.5 36v212h158v-212q0 -21 14 -35.5t35 -14.5h18q20 0 33 14.5t13 35.5v212h158v-212
q0 -22 14 -36t36 -14h59v294h156v-294z" />
    <glyph glyph-name="uniFEB6" unicode="&#x634;" horiz-adv-x="1222" arabic-form="final" 
d="M818 674q-28 0 -48.5 19.5t-20.5 46.5q0 28 20.5 48t48.5 20q27 0 46.5 -20t19.5 -48q0 -27 -19.5 -46.5t-46.5 -19.5zM736 532q-29 0 -49 19t-20 46q0 29 20 48.5t49 19.5q27 0 46 -20t19 -48q0 -27 -19 -46t-46 -19zM836 597q0 29 20 48.5t48 19.5t47 -20t19 -48
q0 -27 -19.5 -46.5t-46.5 -19.5q-28 0 -48 19.5t-20 46.5zM1167 137h52q12 0 12 -11v-114q0 -12 -12 -12h-247q-82 0 -122 73q-41 -73 -122 -73h-102q-20 -101 -102.5 -168t-189.5 -67q-124 0 -210 80.5t-86 197.5v182h134v-162q0 -62 44 -106t110 -44t111.5 45t45.5 105
l-1 341h150v-266h62q22 0 35.5 14.5t13.5 36.5v215h159v-216q0 -22 14 -36t36 -14h58v300h157v-301z" />
    <glyph glyph-name="uniFEB7" unicode="&#x634;" horiz-adv-x="851" arabic-form="initial" 
d="M446 670q-28 0 -48.5 19.5t-20.5 46.5q0 28 20.5 48t48.5 20q27 0 46.5 -20t19.5 -48q0 -27 -19.5 -46.5t-46.5 -19.5zM364 528q-29 0 -49 19t-20 46q0 29 20 48.5t49 19.5q27 0 46 -20t19 -48q0 -27 -19 -46t-46 -19zM464 593q0 29 20 48.5t48 19.5t47 -20t19 -48
q0 -27 -19.5 -46.5t-46.5 -19.5q-28 0 -48 19.5t-20 46.5zM636 138v294h156v-432h-197q-75 0 -121 63q-45 -63 -120 -63h-30q-74 0 -121 63q-46 -63 -120 -63h-86q-12 0 -12 12v114q0 11 12 11l52 1q22 0 35.5 14t13.5 36v212h158v-212q0 -21 14 -35.5t35 -14.5h18
q20 0 33 14.5t13 35.5v212h158v-212q0 -22 14 -36t36 -14h59z" />
    <glyph glyph-name="uniFEB8" unicode="&#x634;" horiz-adv-x="853" arabic-form="medial" 
d="M447 670q-28 0 -48.5 19.5t-20.5 46.5q0 28 20.5 48t48.5 20q27 0 46.5 -20t19.5 -48q0 -27 -19.5 -46.5t-46.5 -19.5zM365 528q-29 0 -49 19t-20 46q0 29 20 48.5t49 19.5q27 0 46 -20t19 -48q0 -27 -19 -46t-46 -19zM465 593q0 29 19.5 48.5t48.5 19.5q28 0 47 -20
t19 -48q0 -27 -19.5 -46.5t-46.5 -19.5q-28 0 -48 19.5t-20 46.5zM793 138l58 -1q11 0 11 -11v-114q0 -12 -11 -12h-255q-75 0 -121 63q-45 -63 -120 -63h-30q-74 0 -121 63q-46 -63 -120 -63h-86q-12 0 -12 12v114q0 11 12 11l52 1q22 0 35.5 14t13.5 36v212h158v-212
q0 -21 14 -35.5t35 -14.5h18q20 0 33 14.5t13 35.5v212h158v-212q0 -22 14 -36t36 -14h59v294h156v-294z" />
    <glyph glyph-name="uniFEBA" unicode="&#x635;" horiz-adv-x="1312" arabic-form="final" 
d="M1253 137h55q11 0 11 -11v-114q0 -12 -11 -12h-682q-20 -101 -103 -169t-190 -68q-120 0 -207.5 79t-87.5 194v184h134v-164q0 -59 46 -101.5t107 -42.5q67 0 112 44t45 105v301h150v-225h42q40 145 135 240t216 95q107 0 167.5 -75.5t60.5 -201.5v-58zM796 137h302v46
q0 72 -30 106.5t-82 34.5q-64 0 -117 -48t-73 -139z" />
    <glyph glyph-name="uniFEBB" unicode="&#x635;" horiz-adv-x="895" arabic-form="initial" 
d="M608 472q107 0 168 -75.5t61 -201.5v-195h-588q-60 0 -97 38q-35 -38 -96 -38h-59q-11 0 -11 12v114q0 11 11 11h25q22 0 35.5 14.5t13.5 36.5v215h131v-215q0 -22 14 -36.5t36 -14.5h5q40 145 135 240t216 95zM379 137h303v46q0 72 -30 106.5t-83 34.5q-63 0 -116.5 -48
t-73.5 -139z" />
    <glyph glyph-name="uniFEBC" unicode="&#x635;" horiz-adv-x="894" arabic-form="medial" 
d="M838 137h55q12 0 12 -11v-114q0 -12 -12 -12h-643q-60 0 -97 38q-35 -38 -96 -38h-59q-11 0 -11 12v114q0 11 11 11h25q22 0 35.5 14.5t13.5 36.5v215h131v-215q0 -22 14 -36.5t36 -14.5h5q40 145 135 240t216 95q107 0 168 -75.5t61 -201.5v-58zM380 137h303v46
q0 72 -30 106.5t-83 34.5q-63 0 -116.5 -48t-73.5 -139z" />
    <glyph glyph-name="uniFEBE" unicode="&#x636;" horiz-adv-x="1312" arabic-form="final" 
d="M957 567q-29 0 -50 20.5t-21 49.5q0 28 21 48.5t50 20.5q28 0 48 -20t20 -49t-20 -49.5t-48 -20.5zM1253 137h55q11 0 11 -11v-114q0 -12 -11 -12h-682q-20 -101 -103 -169t-190 -68q-120 0 -207.5 79t-87.5 194v184h134v-164q0 -59 46 -101.5t107 -42.5q67 0 112 44
t45 105v301h150v-225h42q40 145 135 240t216 95q107 0 167.5 -75.5t60.5 -201.5v-58zM796 137h302v46q0 72 -30 106.5t-82 34.5q-64 0 -117 -48t-73 -139z" />
    <glyph glyph-name="uniFEBF" unicode="&#x636;" horiz-adv-x="895" arabic-form="initial" 
d="M544 564q-29 0 -50 20.5t-21 49.5q0 28 21 48.5t50 20.5q28 0 48 -20t20 -49t-20 -49.5t-48 -20.5zM608 472q107 0 168 -75.5t61 -201.5v-195h-588q-60 0 -97 38q-35 -38 -96 -38h-59q-11 0 -11 12v114q0 11 11 11h25q22 0 35.5 14.5t13.5 36.5v215h131v-215
q0 -22 14 -36.5t36 -14.5h5q40 145 135 240t216 95zM379 137h303v46q0 72 -30 106.5t-83 34.5q-63 0 -116.5 -48t-73.5 -139z" />
    <glyph glyph-name="uniFEC0" unicode="&#x636;" horiz-adv-x="894" arabic-form="medial" 
d="M545 564q-29 0 -50 20.5t-21 49.5q0 28 21 48.5t50 20.5q28 0 48 -20t20 -49t-20 -49.5t-48 -20.5zM838 137h55q12 0 12 -11v-114q0 -12 -12 -12h-643q-60 0 -97 38q-35 -38 -96 -38h-59q-11 0 -11 12v114q0 11 11 11h25q22 0 35.5 14.5t13.5 36.5v215h131v-215
q0 -22 14 -36.5t36 -14.5h5q40 145 135 240t216 95q107 0 168 -75.5t61 -201.5v-58zM380 137h303v46q0 72 -30 106.5t-83 34.5q-63 0 -116.5 -48t-73.5 -139z" />
    <glyph glyph-name="uniFEC2" unicode="&#x637;" horiz-adv-x="788" arabic-form="final" 
d="M749 137h39q9 0 9 -4v-129q0 -4 -9 -4h-750v137h108v583h158v-343q97 95 216 95q107 0 168 -75.5t61 -201.5v-58zM304 137h290v46q0 71 -30 106t-82 35q-55 0 -103.5 -36.5t-74.5 -106.5v-44z" />
    <glyph glyph-name="uniFEC3" unicode="&#x637;" horiz-adv-x="754" arabic-form="initial" 
d="M467 472q107 0 168 -75.5t61 -201.5v-195h-697q-9 0 -9 4v129q0 4 9 4h86v584h158v-352q98 103 224 103zM243 137h298v46q0 71 -30 106t-82 35q-60 0 -111.5 -42.5t-74.5 -123.5v-21z" />
    <glyph glyph-name="uniFEC4" unicode="&#x637;" horiz-adv-x="739" arabic-form="medial" 
d="M697 137h43q9 0 9 -4v-129q0 -4 -9 -4h-740q-9 0 -9 4v129q0 4 9 4h86v584h158v-352q98 103 224 103q107 0 168 -75.5t61 -201.5v-58zM244 137h298v46q0 71 -30 106t-82 35q-60 0 -111.5 -42.5t-74.5 -123.5v-21z" />
    <glyph glyph-name="uniFEC6" unicode="&#x638;" horiz-adv-x="788" arabic-form="final" 
d="M749 137h39q9 0 9 -4v-129q0 -4 -9 -4h-750v137h108v583h158v-343q97 95 216 95q107 0 168 -75.5t61 -201.5v-58zM527 570q-29 0 -50 20.5t-21 49.5q0 28 20.5 48t50.5 20q28 0 48 -20t20 -48q0 -29 -20 -49.5t-48 -20.5zM304 137h290v46q0 71 -30 106t-82 35
q-55 0 -103.5 -36.5t-74.5 -106.5v-44z" />
    <glyph glyph-name="uniFEC7" unicode="&#x638;" horiz-adv-x="754" arabic-form="initial" 
d="M467 472q107 0 168 -75.5t61 -201.5v-195h-697q-9 0 -9 4v129q0 4 9 4h86v584h158v-352q98 103 224 103zM448 581q-29 0 -50 20.5t-21 49.5q0 28 21 48.5t50 20.5q28 0 48 -20t20 -49t-20 -49.5t-48 -20.5zM243 137h298v46q0 71 -30 106t-82 35q-60 0 -111.5 -42.5
t-74.5 -123.5v-21z" />
    <glyph glyph-name="uniFEC8" unicode="&#x638;" horiz-adv-x="739" arabic-form="medial" 
d="M697 137h43q9 0 9 -4v-129q0 -4 -9 -4h-740q-9 0 -9 4v129q0 4 9 4h86v584h158v-352q98 103 224 103q107 0 168 -75.5t61 -201.5v-58zM450 570q-30 0 -51 20.5t-21 49.5q0 28 21 48t51 20q28 0 48 -20t20 -48q0 -29 -20 -49.5t-48 -20.5zM244 137h298v46q0 71 -30 106
t-82 35q-60 0 -111.5 -42.5t-74.5 -123.5v-21z" />
    <glyph glyph-name="uniFECA" unicode="&#x639;" horiz-adv-x="570" arabic-form="final" 
d="M595 86v-34v-10q-1 -40 -11 -42h-168q-65 0 -129 35q-49 -35 -77.5 -77.5t-29.5 -85.5q1 -66 49.5 -100.5t124.5 -34.5q93 0 165 46v-125q-77 -49 -202 -49q-133 0 -212 70.5t-80 189.5q2 134 168 241q-98 93 -142 212l8 65q39 26 102 45.5t125 19.5q104 0 170.5 -41
t66.5 -120q0 -67 -83 -152q21 -2 47 -2h97q11 0 11 -41v-10zM187 304q55 -102 110 -140q94 52 94 104q0 27 -29.5 42t-74.5 15q-55 0 -100 -21z" />
    <glyph glyph-name="uniFECB" unicode="&#x639;" horiz-adv-x="577" arabic-form="initial" 
d="M317 137h202v-134l-516 -3q-12 0 -12 12v114q0 11 12 11h75q-33 45 -33 105q0 104 79 163.5t203 59.5q55 0 121 -17v-120q-54 18 -103 18q-68 0 -108.5 -29.5t-40.5 -83.5q0 -44 32 -70t89 -26z" />
    <glyph glyph-name="uniFECC" unicode="&#x639;" horiz-adv-x="590" arabic-form="medial" 
d="M601 86v-34v-10q-1 -40 -11 -42h-165q-61 0 -120 31q-77 -31 -162 -31h-145q-4 0 -7.5 1t-6 3t-4.5 3.5t-3 5.5t-2 6t-1 7.5v8v9v8.5v34v8.5v9v7.5t1 7.5t2 6t3 5.5t4.5 4t6 2.5t7.5 0.5h176q-74 84 -114 185l8 65q40 26 103 45.5t124 19.5q104 0 170.5 -41t66.5 -120
q0 -81 -67 -154h125q11 0 11 -41v-10zM296 325q-59 0 -104 -17q60 -108 117 -146q43 20 67.5 49t24.5 57q0 27 -29.5 42t-75.5 15z" />
    <glyph glyph-name="uniFECE" unicode="&#x63a;" horiz-adv-x="570" arabic-form="final" 
d="M287 557q-29 0 -50 20.5t-21 49.5q0 28 21 48.5t50 20.5q28 0 48 -20t20 -49t-20 -49.5t-48 -20.5zM595 86v-34v-10q-1 -40 -11 -42h-168q-65 0 -129 35q-49 -35 -77.5 -77.5t-29.5 -85.5q1 -66 49.5 -100.5t124.5 -34.5q93 0 165 46v-125q-77 -49 -202 -49
q-133 0 -212 70.5t-80 189.5q2 134 168 241q-98 93 -142 212l8 65q39 26 102 45.5t125 19.5q104 0 170.5 -41t66.5 -120q0 -67 -83 -152q21 -2 47 -2h97q11 0 11 -41v-10zM187 304q55 -102 110 -140q94 52 94 104q0 27 -29.5 42t-74.5 15q-55 0 -100 -21z" />
    <glyph glyph-name="uniFECF" unicode="&#x63a;" horiz-adv-x="577" arabic-form="initial" 
d="M299 569q-29 0 -50 20.5t-21 49.5q0 28 21 48.5t50 20.5q28 0 48 -20t20 -49t-20 -49.5t-48 -20.5zM317 137h202v-134l-516 -3q-12 0 -12 12v114q0 11 12 11h75q-33 45 -33 105q0 104 79 163.5t203 59.5q55 0 121 -17v-120q-54 18 -103 18q-68 0 -108.5 -29.5
t-40.5 -83.5q0 -44 32 -70t89 -26z" />
    <glyph glyph-name="uniFED0" unicode="&#x63a;" horiz-adv-x="590" arabic-form="medial" 
d="M296 561q-29 0 -50 20.5t-21 49.5q0 28 21 48.5t50 20.5q28 0 48 -20t20 -49t-20 -49.5t-48 -20.5zM601 86v-34v-10q-1 -40 -11 -42h-165q-61 0 -120 31q-77 -31 -162 -31h-145q-4 0 -7.5 1t-6 3t-4.5 3.5t-3 5.5t-2 6t-1 7.5v8v9v8.5v34v8.5v9v7.5t1 7.5t2 6t3 5.5
t4.5 4t6 2.5t7.5 0.5h176q-74 84 -114 185l8 65q40 26 103 45.5t124 19.5q104 0 170.5 -41t66.5 -120q0 -81 -67 -154h125q11 0 11 -41v-10zM296 325q-59 0 -104 -17q60 -108 117 -146q43 20 67.5 49t24.5 57q0 27 -29.5 42t-75.5 15z" />
    <glyph glyph-name="uniFED2" unicode="&#x641;" horiz-adv-x="1102" arabic-form="final" 
d="M783 571q-29 0 -50 20.5t-21 49.5q0 28 21 48.5t50 20.5q28 0 48 -20t20 -49t-20 -49.5t-48 -20.5zM1035 137h64q12 0 12 -11v-115q0 -5 -3.5 -8.5t-8.5 -3.5l-793 1q-109 0 -180 66.5t-71 170.5v148h146v-140q0 -49 34 -78t82 -29h259q-20 43 -20 95q0 97 68 161.5
t172 64.5q110 0 174.5 -63.5t64.5 -163.5v-95zM796 321q-36 0 -59.5 -24.5t-23.5 -63.5q0 -40 23.5 -65.5t60.5 -25.5h82v90q0 39 -23.5 64t-59.5 25z" />
    <glyph glyph-name="uniFED3" unicode="&#x641;" horiz-adv-x="589" arabic-form="initial" 
d="M300 572q-29 0 -50 20.5t-21 49.5q0 28 21 48.5t50 20.5q28 0 48 -20t20 -49t-20 -49.5t-48 -20.5zM294 455q110 0 174.5 -63.5t64.5 -163.5v-228h-536q-11 0 -11 12v115q0 11 11 11h76q-18 42 -18 91q0 97 67.5 161.5t171.5 64.5zM295 138h82v90q0 39 -23 64t-59 25
q-37 0 -60.5 -24.5t-23.5 -63.5q0 -40 24 -65.5t60 -25.5z" />
    <glyph glyph-name="uniFED4" unicode="&#x641;" horiz-adv-x="587" arabic-form="medial" 
d="M301 572q-29 0 -50 20.5t-21 49.5q0 28 21 48.5t50 20.5q28 0 48 -20t20 -49t-20 -49.5t-48 -20.5zM536 137h53q12 0 12 -11v-115q0 -11 -12 -11h-586q-12 0 -12 12v115q0 10 12 10h73q-19 44 -19 94q0 97 68 161t172 64q110 0 174.5 -63.5t64.5 -163.5v-92zM297 318
q-36 0 -60 -24.5t-24 -63.5q0 -40 24 -65.5t61 -25.5h82v90q0 39 -23.5 64t-59.5 25z" />
    <glyph glyph-name="uniFED6" unicode="&#x642;" horiz-adv-x="834" arabic-form="final" 
d="M454 528q-29 0 -49.5 20.5t-20.5 49.5q0 28 20.5 48t49.5 20q28 0 48 -20t20 -48q0 -29 -20 -49.5t-48 -20.5zM628 528q-29 0 -49.5 20.5t-20.5 49.5q0 28 20.5 48t49.5 20q28 0 48 -20t20 -48q0 -29 -20 -49.5t-48 -20.5zM778 137h54q11 0 11 -11v-114q0 -12 -11 -12
h-60q-22 -123 -120.5 -198t-257.5 -75q-157 0 -256.5 93t-99.5 231v175h148v-152q0 -85 60 -141.5t170 -56.5q76 0 131.5 34t72.5 91h-75q-108 0 -176 64.5t-68 164.5q0 95 66.5 160.5t170.5 65.5q112 0 176 -64.5t64 -166.5v-88zM545 138h78v88q0 41 -23 66.5t-61 25.5
q-37 0 -59.5 -25.5t-22.5 -62.5q0 -42 24 -67t64 -25z" />
    <glyph glyph-name="uniFED7" unicode="&#x642;" horiz-adv-x="589" arabic-form="initial" 
d="M214 552q-29 0 -49.5 20t-20.5 49q0 28 20.5 48t49.5 20q28 0 48 -20t20 -48t-20 -48.5t-48 -20.5zM388 552q-29 0 -49.5 20t-20.5 49q0 28 20.5 48t49.5 20q28 0 48 -20t20 -48t-20 -48.5t-48 -20.5zM294 455q110 0 174.5 -63.5t64.5 -163.5v-228h-536q-11 0 -11 12v115
q0 11 11 11h76q-18 42 -18 91q0 97 67.5 161.5t171.5 64.5zM295 138h82v90q0 39 -23 64t-59 25q-37 0 -60.5 -24.5t-23.5 -63.5q0 -40 24 -65.5t60 -25.5z" />
    <glyph glyph-name="uniFED8" unicode="&#x642;" horiz-adv-x="587" arabic-form="medial" 
d="M214 552q-29 0 -49.5 20t-20.5 49q0 28 20.5 48t49.5 20q28 0 48 -20t20 -48t-20 -48.5t-48 -20.5zM388 552q-29 0 -49.5 20t-20.5 49q0 28 20.5 48t49.5 20q28 0 48 -20t20 -48t-20 -48.5t-48 -20.5zM536 137h53q12 0 12 -11v-115q0 -11 -12 -11h-586q-12 0 -12 12v115
q0 10 12 10h73q-19 44 -19 94q0 97 68 161t172 64q110 0 174.5 -63.5t64.5 -163.5v-92zM297 318q-36 0 -60 -24.5t-24 -63.5q0 -40 24 -65.5t61 -25.5h82v90q0 39 -23.5 64t-59.5 25z" />
    <glyph glyph-name="uniFEDA" unicode="&#x643;" horiz-adv-x="1003" arabic-form="final" 
d="M975 137h31q11 0 11 -11v-114q0 -12 -11 -12h-31q-78 0 -112 67q-33 -67 -111 -67l-445 -1q-109 0 -180 66.5t-71 170.5v136h146v-128q0 -49 34 -78t82 -28h399q22 0 35.5 14.5t13.5 36.5v513h159v-514q0 -22 14.5 -36.5t35.5 -14.5zM625 369h-95h-5h-160v76h31
q-8 22 -8 45q0 52 38 88t104 36q40 0 72 -12v-79q-30 14 -59 14q-23 0 -38 -13t-15 -34q0 -20 13 -32t34 -13h88v-76z" />
    <glyph glyph-name="uniFEDB" unicode="&#x643;" horiz-adv-x="518" arabic-form="initial" 
d="M43 508l387 235l64 -121l-252 -155l39 -18q101 -45 152 -112.5t51 -168.5v-168h-483q-7 0 -12 2.5t-7 6t-3 10.5t-1.5 11.5t0 13.5t0.5 13v23q0 5 -0.5 17t0 17t2 11.5t7 9t14.5 2.5h343v27q0 58 -26 91.5t-88 63.5l-186 89z" />
    <glyph glyph-name="uniFEDC" unicode="&#x643;" horiz-adv-x="572" arabic-form="medial" 
d="M485 137h96q6 0 6 -15v-106q0 -16 -6 -16h-579q-7 0 -12 2.5t-7 6t-3 10.5t-1.5 11.5t0 13.5t0.5 13v23q0 5 -0.5 17t0 17t2 11.5t7 9t14.5 2.5h343v27q0 58 -26 91.5t-88 63.5l-186 89l-1 100l387 235l64 -121l-252 -155l39 -18q101 -45 152 -112.5t51 -168.5v-31z" />
    <glyph glyph-name="uniFEDE" unicode="&#x644;" horiz-adv-x="692" arabic-form="final" 
d="M630 137h63q11 0 11 -11v-114q0 -12 -11 -12h-69q-21 -101 -103.5 -168t-188.5 -67q-124 0 -205.5 80t-81.5 198v182h140v-164q0 -62 41 -104.5t106 -42.5q61 0 105 42.5t44 101.5l-1 647h150v-568z" />
    <glyph glyph-name="uniFEDF" unicode="&#x644;" horiz-adv-x="297" arabic-form="initial" 
d="M-12 12v114q0 11 11 11l80 1v577h157v-715h-237q-11 0 -11 12z" />
    <glyph glyph-name="uniFEE0" unicode="&#x644;" horiz-adv-x="307" arabic-form="medial" 
d="M295 137h14v-137h-17q-69 0 -107 51q-34 -51 -100 -51h-85q-12 0 -12 12v114q0 11 12 11h37q22 0 36 14.5t14 36.5v524h159v-524q0 -22 13.5 -36.5t35.5 -14.5z" />
    <glyph glyph-name="uniFEE2" unicode="&#x645;" horiz-adv-x="803" arabic-form="final" 
d="M794 137h9q9 0 9 -4v-129q0 -4 -9 -4h-11q-94 0 -137 53q-70 -80 -174 -80q-68 0 -124.5 37.5t-84.5 98.5q-59 -22 -59 -130v-345h-151v310q0 250 189 296q10 89 76 150t154 61q91 0 158.5 -64.5t73.5 -157.5h1v-19q0 -73 80 -73zM478 117q40 0 67 27t27 66t-27.5 66
t-66.5 27q-38 0 -65 -27t-27 -66t26.5 -66t65.5 -27z" />
    <glyph glyph-name="uniFEE3" unicode="&#x645;" horiz-adv-x="614" arabic-form="initial" 
d="M326 454q96 0 164.5 -70t68.5 -169t-68.5 -169t-164.5 -70q-103 0 -171 78q-43 -54 -140 -54h-15q-9 0 -9 4v129q0 4 9 4h15q79 0 79 73v26h1q8 91 74.5 154.5t156.5 63.5zM324 120q39 0 66.5 27t27.5 67q0 38 -28 65.5t-66 27.5q-39 0 -66 -27.5t-27 -65.5
q0 -40 26.5 -67t66.5 -27z" />
    <glyph glyph-name="uniFEE4" unicode="&#x645;" horiz-adv-x="624" arabic-form="medial" 
d="M572 137h57q5 0 5 -15v-106q0 -16 -5 -16h-295q-103 0 -172 64q-42 -64 -147 -64h-15q-9 0 -9 4v129q0 4 9 4h15q78 0 79 70q-1 7 -1 22q0 97 68 161.5t172 64.5q110 0 174.5 -63.5t64.5 -163.5v-91zM334 138h81v90q0 40 -23 64.5t-59 24.5q-37 0 -60.5 -24.5
t-23.5 -63.5q0 -40 24 -65.5t61 -25.5z" />
    <glyph glyph-name="uniFEE6" unicode="&#x646;" horiz-adv-x="694" arabic-form="final" 
d="M299 390q-29 0 -50 20.5t-21 49.5q0 28 21 48.5t50 20.5q28 0 48 -20t20 -49t-20 -49.5t-48 -20.5zM642 137h54q5 0 10 -4.5t5 -10.5v-106q0 -6 -5 -11t-10 -5h-60q-22 -106 -104 -171.5t-189 -65.5q-125 0 -210.5 80.5t-85.5 198.5v181h135v-161q0 -63 43.5 -107
t109.5 -44q68 0 112.5 43t44.5 114l-1 360h151v-291z" />
    <glyph glyph-name="uniFEE7" unicode="&#x646;" horiz-adv-x="344" arabic-form="initial" 
d="M200 541q-29 0 -50 20.5t-21 49.5q0 28 21 48.5t50 20.5q28 0 48 -20t20 -49t-20 -49.5t-48 -20.5zM286 0h-293q-12 0 -12 12v114q0 11 12 11l135 1v284h158v-422z" />
    <glyph glyph-name="uniFEE8" unicode="&#x646;" horiz-adv-x="365" arabic-form="medial" 
d="M169 542q-29 0 -50 20.5t-21 49.5q0 28 21 48.5t50 20.5q28 0 48 -20t20 -49t-20 -49.5t-48 -20.5zM306 138h61v-138h-64q-71 0 -109 52q-37 -52 -112 -52h-85q-12 0 -12 12v114q0 11 12 11l51 1q22 0 35.5 14t13.5 36v234h159v-234q0 -22 14 -36t36 -14z" />
    <glyph glyph-name="uniFEEA" unicode="&#x647;" horiz-adv-x="586" arabic-form="final" 
d="M562 137h28q11 0 11 -11v-114q0 -12 -11 -12h-60q-100 0 -140 73q-64 -27 -125 -27q-90 0 -149 55.5t-59 149.5q0 96 66.5 158t167.5 62h221v-279q0 -22 12 -38.5t38 -16.5zM190 255q0 -38 25 -58t64 -20q47 0 90 23v140h-83q-43 0 -69.5 -23.5t-26.5 -61.5z" />
    <glyph glyph-name="uniFEEB" unicode="&#x647;" horiz-adv-x="695" arabic-form="initial" 
d="M266 493q178 0 274 -92t96 -284v-117h-634q-11 0 -11 12v114q0 11 11 11h108q-13 39 -13 88q0 68 26 122q-45 -9 -73 -18v129q118 35 216 35zM395 137h99q0 84 -25 133t-85 71q24 -53 24 -116q0 -44 -13 -88zM196 228q0 -37 17 -64t40 -27q22 0 38.5 27t16.5 64
t-16.5 64.5t-38.5 27.5q-23 0 -40 -27.5t-17 -64.5z" />
    <glyph glyph-name="uniFEEC" unicode="&#x647;" horiz-adv-x="544" arabic-form="medial" 
d="M428 137h117v-137h-93q32 -37 32 -88q0 -70 -54.5 -112.5t-136.5 -42.5q-106 0 -172.5 66.5t-77.5 176.5h-46q-12 0 -12 12v113q0 5 3.5 8.5t8.5 3.5h48q17 132 96 222q69 78 167 78q83 0 129 -46.5t46 -128.5q0 -35 -16 -72t-39 -53zM293 304q-44 0 -77.5 -48.5
t-40.5 -118.5h35q68 0 104.5 29.5t36.5 79.5q0 26 -15 42t-43 16zM288 -112q30 0 47.5 13.5t17.5 37.5t-22.5 43t-51.5 19h-99q6 -53 34 -83t74 -30z" />
    <glyph glyph-name="uniFEEE" unicode="&#x648;" horiz-adv-x="555" arabic-form="final" 
d="M516 137h41q11 0 11 -11v-114q0 -12 -11 -12h-41q-1 -56 -21.5 -102t-53 -74.5t-74 -50t-87 -28.5t-91 -10t-84.5 5v124q40 -6 85 -0.5t83 17t63 41t25 71.5v7h-82q-106 0 -173.5 65.5t-67.5 163.5q0 97 67.5 161.5t171.5 64.5q110 0 174.5 -63.5t64.5 -163.5v-91z
M278 138h82v90q0 39 -23 64t-59 25q-37 0 -60.5 -24.5t-23.5 -63.5q0 -40 24 -65.5t60 -25.5z" />
    <glyph glyph-name="uniFEF0" unicode="&#x649;" horiz-adv-x="791" arabic-form="final" 
d="M715 137h75q11 0 11 -11v-114q0 -12 -11 -12h-40q-12 -104 -97 -172.5t-248 -68.5q-367 0 -367 265q0 79 35 184h132q-26 -95 -26 -152q0 -84 51 -116.5t174 -32.5q104 0 159.5 30.5t55.5 78.5q0 46 -99 98l83 112q75 -42 112 -89z" />
    <glyph glyph-name="uniFEF2" unicode="&#x64a;" horiz-adv-x="791" arabic-form="final" 
d="M715 137h75q11 0 11 -11v-114q0 -12 -11 -12h-40q-12 -104 -97 -172.5t-248 -68.5q-367 0 -367 265q0 79 35 184h132q-26 -95 -26 -152q0 -84 51 -116.5t174 -32.5q104 0 159.5 30.5t55.5 78.5q0 46 -99 98l83 112q75 -42 112 -89zM333 -299q29 0 49 -20.5t20 -48.5
q0 -29 -20.5 -50t-48.5 -21q-30 0 -51 21t-21 50t21 49t51 20zM496 -299q28 0 48.5 -20.5t20.5 -48.5q0 -29 -20.5 -50t-48.5 -21q-30 0 -51 21t-21 50t21 49t51 20z" />
    <glyph glyph-name="uniFEF3" unicode="&#x64a;" horiz-adv-x="357" arabic-form="initial" 
d="M286 0h-293q-12 0 -12 12v114q0 11 12 11l135 1v284h158v-422zM107 -227q-29 0 -50 21t-21 51q0 28 21 48.5t50 20.5t49 -20t20 -49q0 -30 -20 -51t-49 -21zM270 -226q-30 0 -50.5 20.5t-20.5 50.5q0 29 20.5 49t50.5 20q28 0 48.5 -20t20.5 -49q0 -30 -20 -50.5
t-49 -20.5z" />
    <glyph glyph-name="uniFEF4" unicode="&#x64a;" horiz-adv-x="365" arabic-form="medial" 
d="M306 138h61v-138h-64q-71 0 -109 52q-37 -52 -112 -52h-85q-12 0 -12 12v114q0 11 12 11l51 1q22 0 35.5 14t13.5 36v234h159v-234q0 -22 14 -36t36 -14zM111 -86q29 0 49 -20t20 -49t-20.5 -50t-48.5 -21q-30 0 -51 21t-21 50t21 49t51 20zM274 -86q28 0 48.5 -20
t20.5 -49t-20.5 -50t-48.5 -21q-30 0 -51 21t-21 50t21 49t51 20z" />
    <glyph glyph-name=".notdef" horiz-adv-x="695" 
 />
    <glyph glyph-name=".null" 
 />
    <glyph glyph-name="nonmarkingreturn" horiz-adv-x="333" 
 />
    <glyph glyph-name="space" unicode=" " horiz-adv-x="175" 
 />
    <glyph glyph-name="exclam" unicode="!" horiz-adv-x="271" 
d="M203 209h-134l-14 506h161zM136 -14q-42 0 -65 20.5t-23 57.5t23 58t65 21q40 0 63.5 -21t23.5 -58t-23 -57.5t-64 -20.5z" />
    <glyph glyph-name="quotedbl" unicode="&#x22;" horiz-adv-x="596" 
d="M307 456h-123v261h123v-261zM483 456h-122v261h122v-261z" />
    <glyph glyph-name="numbersign" unicode="#" horiz-adv-x="580" 
d="M55 404l20 112h94l29 172h91l-29 -172h115l29 172h91l-29 -172h97l-20 -112h-97l-18 -109h96l-20 -112h-95l-31 -186h-91l31 186h-115l-31 -186h-91l31 186h-95l20 112h94l18 109h-94zM240 404l-18 -109h115l18 109h-115z" />
    <glyph glyph-name="dollar" unicode="$" horiz-adv-x="670" 
d="M589 204q0 -95 -71.5 -153.5t-191.5 -63.5v-86h-52v87q-124 8 -195.5 68t-75.5 162h145q12 -104 126 -119v202q-56 12 -95.5 25.5t-76.5 36.5t-55.5 57.5t-18.5 81.5q0 91 64.5 143.5t181.5 57.5v60h52v-61q105 -8 166 -60t68 -142h-142q-12 79 -92 94v-173q8 -1 24 -5
q55 -12 93.5 -26t74 -38t53.5 -61t18 -87zM167 518q0 -33 25.5 -51.5t81.5 -32.5v164q-49 -3 -78 -24.5t-29 -55.5zM326 289v-192q56 3 87.5 27.5t31.5 66.5q0 38 -28 60t-91 38z" />
    <glyph glyph-name="percent" unicode="%" horiz-adv-x="927" 
d="M237 303q-77 0 -126.5 54t-49.5 143q0 88 49 142.5t127 54.5q80 0 128.5 -54t48.5 -143t-49.5 -143t-127.5 -54zM211 -3l405 692h83l-405 -692h-83zM238 380q68 0 68 120q0 56 -17 88.5t-51 32.5q-35 0 -52.5 -32.5t-17.5 -88.5q0 -120 70 -120zM689 -6q-77 0 -126.5 54
t-49.5 143q0 88 49 142.5t127 54.5q80 0 128.5 -54t48.5 -143t-49.5 -143t-127.5 -54zM690 71q68 0 68 120q0 56 -17 88.5t-51 32.5q-69 0 -69 -121q0 -120 69 -120z" />
    <glyph glyph-name="ampersand" unicode="&#x26;" horiz-adv-x="744" 
d="M151 553q0 75 52 122t143 47q86 0 139.5 -45.5t53.5 -122.5q0 -60 -36 -100.5t-101 -73.5l112 -136q24 51 30 99h124q-9 -99 -77 -193l127 -153h-175l-50 61q-87 -70 -189 -70q-115 0 -183 58.5t-68 150.5q0 55 24 97.5t55.5 66t81.5 48.5q-63 75 -63 144zM281 555
q0 -45 59 -104q76 45 76 102q0 31 -18 50.5t-48 19.5q-33 0 -51 -18.5t-18 -49.5zM311 102q62 0 111 47l-139 173q-84 -50 -84 -123q0 -43 31.5 -70t80.5 -27z" />
    <glyph glyph-name="quotesingle" unicode="'" horiz-adv-x="347" 
d="M235 456h-123v261h123v-261z" />
    <glyph glyph-name="parenleft" unicode="(" horiz-adv-x="386" 
d="M344 -139h-123q-115 200 -115 437q0 134 32 254t83 205h123q-102 -221 -102 -459q0 -219 102 -437z" />
    <glyph glyph-name="parenright" unicode=")" horiz-adv-x="332" 
d="M111 -139h-123q102 218 102 437q0 240 -103 459h124q51 -85 83 -205t32 -254q0 -237 -115 -437z" />
    <glyph glyph-name="asterisk" unicode="*" horiz-adv-x="477" 
d="M240 463l-77 -107l-66 48l77 104l-122 40l28 76l116 -41v131h85v-131l117 41l28 -76l-122 -40l77 -104l-64 -48z" />
    <glyph glyph-name="plus" unicode="+" horiz-adv-x="589" 
d="M62 267v124h166v179h133v-179h167v-124h-167v-180h-133v180h-166z" />
    <glyph glyph-name="comma" unicode="," horiz-adv-x="362" 
d="M63 -187l44 299h142l-89 -299h-97z" />
    <glyph glyph-name="hyphen" unicode="-" horiz-adv-x="432" 
d="M86 200v122h261v-122h-261z" />
    <glyph glyph-name="period" unicode="." horiz-adv-x="328" 
d="M166 -6q-29 0 -50 20.5t-21 49.5q0 28 21 48t50 20q28 0 48 -20t20 -48q0 -29 -20 -49.5t-48 -20.5z" />
    <glyph glyph-name="slash" unicode="/" horiz-adv-x="403" 
d="M132 -3h-132l271 721h132z" />
    <glyph glyph-name="zero" unicode="0" horiz-adv-x="725" 
d="M362 -17q-133 0 -217 98t-84 261q0 161 84 260t217 99q137 0 219.5 -98t82.5 -261t-84 -261t-218 -98zM363 97q72 0 110 66t38 179q0 112 -38 179t-110 67t-110.5 -67t-38.5 -179q0 -114 38 -179.5t111 -65.5z" />
    <glyph glyph-name="one" unicode="1" horiz-adv-x="478" 
d="M240 693h117v-696h-151v459q-53 -33 -146 -39v120q81 6 129.5 46.5t50.5 109.5z" />
    <glyph glyph-name="two" unicode="2" horiz-adv-x="658" 
d="M81 0v104l212 197q80 74 108.5 112.5t28.5 73.5v1q0 45 -31 73t-81 28q-51 0 -84 -31t-34 -80v-4h-142v3q1 102 74.5 165.5t191.5 63.5q115 0 185.5 -57t70.5 -150v-1q0 -59 -38 -116t-132 -143l-123 -118v-1h310v-120h-516z" />
    <glyph glyph-name="three" unicode="3" horiz-adv-x="688" 
d="M507 366q122 -41 122 -167q0 -103 -78.5 -159.5t-195.5 -56.5q-141 0 -220 64t-80 187h142q3 -64 42 -100.5t110 -36.5q62 0 96.5 29.5t34.5 78.5q0 48 -36.5 73.5t-98.5 25.5h-52v101h48q56 0 88.5 23t32.5 65q0 43 -31.5 68.5t-85.5 25.5q-61 0 -94 -33t-36 -85h-138
q0 103 73 167.5t197 64.5q116 0 188 -53.5t72 -145.5q0 -96 -100 -136z" />
    <glyph glyph-name="four" unicode="4" horiz-adv-x="692" 
d="M534 -3h-146v166h-336v122l339 410h143v-419h100v-113h-100v-166zM387 546l-220 -270h221z" />
    <glyph glyph-name="five" unicode="5" horiz-adv-x="696" 
d="M400 465q107 0 174 -64t67 -168q0 -115 -74.5 -182.5t-200.5 -67.5q-120 0 -197 57t-89 166h147q8 -50 44.5 -78t91.5 -28q59 0 94 37t35 98q0 59 -35.5 94t-94.5 35q-82 0 -117 -58h-139l77 382h414v-119h-304l-31 -147q48 43 138 43z" />
    <glyph glyph-name="six" unicode="6" horiz-adv-x="694" 
d="M383 463q105 0 177.5 -66t72.5 -170q0 -108 -75.5 -176t-195.5 -68q-148 0 -224.5 94t-76.5 261q0 172 77.5 267.5t221.5 95.5q106 0 172.5 -50t82.5 -140h-144q-16 84 -111 84q-71 0 -107 -59t-37 -152q56 79 167 79zM357 93q59 0 96 38t37 96q0 57 -37.5 93t-97.5 36
q-62 0 -98.5 -38.5t-36.5 -94.5q0 -57 38.5 -93.5t98.5 -36.5z" />
    <glyph glyph-name="seven" unicode="7" horiz-adv-x="618" 
d="M311 -3h-153q9 319 247 561l-355 2v128h515v-111q-117 -117 -185 -265.5t-69 -314.5z" />
    <glyph glyph-name="eight" unicode="8" horiz-adv-x="691" 
d="M500 368q63 -22 97 -67.5t34 -106.5q0 -95 -77.5 -153t-207.5 -58q-131 0 -208 57.5t-77 151.5q0 121 130 171q-99 44 -99 146q0 84 69 138t184 54q117 0 185 -51.5t68 -137.5q0 -46 -26 -84t-72 -60zM345 600q-53 0 -85 -26.5t-32 -68.5t32 -68.5t85 -26.5t85 26.5
t32 68.5t-32 68.5t-85 26.5zM347 91q62 0 99.5 30.5t37.5 82.5t-37.5 82.5t-100.5 30.5t-101.5 -31t-38.5 -82t39 -82t102 -31z" />
    <glyph glyph-name="nine" unicode="9" horiz-adv-x="660" 
d="M297 700q148 0 225 -94.5t77 -260.5q0 -172 -78 -267.5t-222 -95.5q-106 0 -172.5 50t-82.5 140h145q6 -38 33.5 -61t76.5 -23q71 0 107 59t38 153q-56 -80 -168 -80q-105 0 -177.5 66t-72.5 170q0 108 75.5 176t195.5 68zM304 327q62 0 98.5 38.5t36.5 94.5
q0 57 -38 93.5t-99 36.5q-58 0 -95.5 -38t-37.5 -96q0 -57 37.5 -93t97.5 -36z" />
    <glyph glyph-name="colon" unicode=":" horiz-adv-x="364" 
d="M183 319q-41 0 -64.5 20.5t-23.5 56.5q0 37 23.5 57t64.5 20t63.5 -20t22.5 -57q0 -36 -23 -56.5t-63 -20.5zM183 -18q-41 0 -64.5 20.5t-23.5 56.5q0 37 23.5 57t64.5 20t63.5 -20t22.5 -57q0 -36 -23 -56.5t-63 -20.5z" />
    <glyph glyph-name="semicolon" unicode=";" horiz-adv-x="365" 
d="M183 319q-41 0 -64 20.5t-23 56.5q0 37 23 57t64 20t64 -20t23 -57q0 -36 -23 -56.5t-64 -20.5zM63 -210v109q68 16 68 101v151h119v-163q0 -78 -55 -134.5t-132 -63.5z" />
    <glyph glyph-name="equal" unicode="=" horiz-adv-x="602" 
d="M68 351v119h466v-119h-466zM68 150v119h466v-119h-466z" />
    <glyph glyph-name="question" unicode="?" horiz-adv-x="531" 
d="M309 210h-131q-7 77 10.5 116.5t75.5 77.5q53 35 72.5 57.5t19.5 58.5q0 38 -28 62t-72 24q-48 0 -76.5 -29t-29.5 -79h-136q-1 103 66.5 163t184.5 60q109 0 176 -54t67 -143q0 -56 -27 -94.5t-83 -74.5q-59 -38 -74.5 -63.5t-14.5 -81.5zM246 -14q-41 0 -64 20.5
t-23 57.5q0 36 23 56.5t64 20.5t64 -20.5t23 -56.5q0 -37 -23 -57.5t-64 -20.5z" />
    <glyph glyph-name="at" unicode="@" horiz-adv-x="963" 
d="M497 714q110 0 201 -42.5t148 -129.5t57 -203q0 -121 -57.5 -191t-145.5 -70q-116 0 -139 91q-48 -87 -139 -87q-75 0 -119 52.5t-44 141.5q0 107 52.5 175t141.5 68q90 0 120 -81l9 70h114l-34 -276q-9 -76 48 -76q44 0 74.5 46t30.5 136q0 145 -88.5 222.5t-229.5 77.5
q-146 0 -248.5 -95.5t-102.5 -258.5q0 -141 88.5 -228t241.5 -87q94 0 183 39l28 -72q-93 -44 -214 -44q-182 0 -299 107.5t-117 282.5q0 101 37.5 184.5t100 136.5t140.5 82t162 29zM457 174q44 0 73.5 43.5t29.5 108.5q0 46 -20.5 74t-56.5 28q-46 0 -74.5 -42t-28.5 -108
q0 -47 20 -75.5t57 -28.5z" />
    <glyph glyph-name="A" unicode="A" horiz-adv-x="772" 
d="M193 0h-156l270 715h158l270 -715h-166l-54 149h-267zM381 535l-97 -276h194z" />
    <glyph glyph-name="B" unicode="B" horiz-adv-x="732" 
d="M555 386q63 -19 97.5 -65t34.5 -109q0 -107 -78 -164q-63 -48 -173 -48h-352v715h342q99 0 160 -45q67 -52 67 -141q0 -102 -98 -143zM401 592h-164v-168h175q42 1 68 22.5t26 58.5q0 41 -28.5 64t-76.5 23zM237 124h183q52 0 83.5 27t31.5 73q0 45 -30 70t-80 26h-188
v-196z" />
    <glyph glyph-name="C" unicode="C" horiz-adv-x="777" 
d="M406 -15q-159 0 -257 104t-98 267q0 162 99 266t257 104q130 0 216 -71.5t98 -190.5h-156q-6 57 -50.5 95t-109.5 38q-93 0 -144.5 -66t-51.5 -175q0 -108 53 -174.5t143 -66.5q70 0 115 41.5t52 109.5h157q-9 -117 -91 -197q-87 -84 -232 -84z" />
    <glyph glyph-name="D" unicode="D" horiz-adv-x="782" 
d="M84 0v715h312q153 0 244 -95.5t91 -263.5t-91.5 -262t-251.5 -94h-304zM240 130h136q91 0 144 59.5t53 166.5t-52 168t-142 61h-139v-455z" />
    <glyph glyph-name="E" unicode="E" horiz-adv-x="699" 
d="M630 0h-546v715h536v-128h-380v-157h330v-120h-330v-176h390v-134z" />
    <glyph glyph-name="F" unicode="F" horiz-adv-x="665" 
d="M240 0h-156v715h532v-132h-376v-171h315v-123h-315v-289z" />
    <glyph glyph-name="G" unicode="G" horiz-adv-x="775" 
d="M405 -12q-163 0 -258.5 99t-95.5 270q0 166 94.5 267.5t256.5 101.5q124 0 208.5 -66.5t104.5 -180.5h-151q-12 56 -56 87.5t-106 31.5q-90 0 -139.5 -65t-49.5 -174q0 -111 54.5 -177.5t144.5 -66.5q75 0 117 42.5t46 123.5h-153v104h301l-1 -79q-1 -146 -83 -232
t-234 -86z" />
    <glyph glyph-name="H" unicode="H" horiz-adv-x="777" 
d="M84 0v715h156v-279h297v279h156v-715h-156v305h-297v-305h-156z" />
    <glyph glyph-name="I" unicode="I" horiz-adv-x="324" 
d="M240 0h-156v715h156v-715z" />
    <glyph glyph-name="J" unicode="J" horiz-adv-x="607" 
d="M283 -12q-121 0 -183.5 65t-62.5 168v47h145v-48q0 -50 24.5 -75.5t70.5 -25.5q90 0 90 101v495h156v-500q0 -112 -63 -169.5t-177 -57.5z" />
    <glyph glyph-name="K" unicode="K" horiz-adv-x="757" 
d="M240 0h-156v715h156v-288l285 288h183l-284 -290l307 -425h-183l-231 317l-77 -77v-240z" />
    <glyph glyph-name="L" unicode="L" horiz-adv-x="629" 
d="M585 0h-501v715h156v-581h345v-134z" />
    <glyph glyph-name="M" unicode="M" horiz-adv-x="912" 
d="M454 234l171 481h202v-715h-142v484l-173 -484h-116l-173 489v-489h-139v715h201z" />
    <glyph glyph-name="N" unicode="N" horiz-adv-x="787" 
d="M552 237v478h151v-715h-159l-309 480v-480h-151v715h155z" />
    <glyph glyph-name="O" unicode="O" horiz-adv-x="817" 
d="M408 -15q-160 0 -258.5 104t-98.5 266t98.5 266.5t258.5 104.5t259 -104.5t99 -266.5q0 -161 -99 -265.5t-259 -104.5zM408 112q91 0 145.5 68.5t54.5 174.5q0 107 -54.5 176t-145.5 69t-145 -68.5t-54 -176.5q0 -107 54 -175t145 -68z" />
    <glyph glyph-name="P" unicode="P" horiz-adv-x="704" 
d="M233 0h-149v715h302q116 0 183 -55q85 -63 85 -182q0 -101 -66.5 -164.5t-176.5 -63.5h-178v-250zM233 584v-211h146q57 0 88 28.5t31 79.5q0 48 -30.5 75.5t-87.5 27.5h-147z" />
    <glyph glyph-name="Q" unicode="Q" horiz-adv-x="817" 
d="M761 7l-69 -72l-103 95q-80 -45 -181 -45q-160 0 -258.5 104.5t-98.5 266.5t99 266.5t258 104.5q160 0 259 -104.5t99 -266.5q0 -163 -98 -264zM408 112q44 0 80 18l-72 66l69 71l75 -68q48 63 48 157q0 107 -54.5 175.5t-145.5 68.5t-145 -68.5t-54 -175.5
q0 -108 54 -176t145 -68z" />
    <glyph glyph-name="R" unicode="R" horiz-adv-x="734" 
d="M680 478q0 -80 -42.5 -137.5t-117.5 -79.5l142 -261h-174l-132 250h-96v-250h-150v715h303q116 0 183 -55q84 -64 84 -182zM407 584h-147v-211h146q57 0 88 28.5t31 79.5q0 48 -31 75.5t-87 27.5z" />
    <glyph glyph-name="S" unicode="S" horiz-adv-x="706" 
d="M367 -7q-143 0 -226 62t-88 172h148q15 -122 168 -122q63 0 100 25.5t37 69.5q0 45 -39.5 68t-133.5 42q-45 10 -79 20t-69 26.5t-57 37.5t-36 52t-14 69q0 96 72 149.5t200 53.5q122 0 194 -54t79 -151h-145q-17 99 -135 99q-56 0 -89 -22t-33 -60q0 -42 39.5 -60
t147.5 -42q56 -12 95.5 -26.5t76 -38.5t55 -61.5t18.5 -88.5q0 -100 -78 -160t-208 -60z" />
    <glyph glyph-name="T" unicode="T" horiz-adv-x="686" 
d="M420 0h-156v581h-222v134h601v-134h-223v-581z" />
    <glyph glyph-name="U" unicode="U" horiz-adv-x="775" 
d="M388 -9q-150 0 -227 71t-77 202v451h156v-459q0 -67 38 -103t112 -36q70 0 107.5 38t37.5 104v456h156v-451q0 -129 -77.5 -201t-225.5 -72z" />
    <glyph glyph-name="V" unicode="V" horiz-adv-x="739" 
d="M455 0h-172l-246 715h162l171 -530l172 530h159z" />
    <glyph glyph-name="W" unicode="W" horiz-adv-x="1033" 
d="M705 210l123 505h161l-199 -715h-155l-119 503l-119 -503h-158l-195 715h157l123 -504l120 504h141z" />
    <glyph glyph-name="X" unicode="X" horiz-adv-x="783" 
d="M221 0h-177l253 374l-231 341h181l148 -230l153 230h172l-230 -340l249 -375h-187l-162 258z" />
    <glyph glyph-name="Y" unicode="Y" horiz-adv-x="742" 
d="M449 0h-156v273l-256 442h171l165 -300l165 300h167l-256 -442v-273z" />
    <glyph glyph-name="Z" unicode="Z" horiz-adv-x="726" 
d="M664 0h-601v127l372 454h-347v134h555v-117l-382 -464l403 1v-135z" />
    <glyph glyph-name="bracketleft" unicode="[" horiz-adv-x="424" 
d="M391 -139h-272v896h272v-111h-138v-675h138v-110z" />
    <glyph glyph-name="backslash" unicode="\" horiz-adv-x="413" 
d="M142 718l271 -721h-132l-271 721h132z" />
    <glyph glyph-name="bracketright" unicode="]" horiz-adv-x="363" 
d="M244 757v-896h-272v110h138v675h-138v111h272z" />
    <glyph glyph-name="underscore" unicode="_" horiz-adv-x="429" 
d="M0 -170v89h429v-89h-429z" />
    <glyph glyph-name="a" unicode="a" horiz-adv-x="589" 
d="M296 529q226 0 226 -181v-349h-122l-9 63q-59 -77 -176 -77q-76 0 -123.5 37.5t-48.5 106.5q1 93 89.5 138.5t251.5 40.5v50q0 75 -85 75q-89 0 -97 -87h-135q2 82 61 132.5t168 50.5zM264 74q52 0 86 29t34 82v50q-110 3 -156.5 -25t-46.5 -69q0 -35 24 -51t59 -16z" />
    <glyph glyph-name="b" unicode="b" horiz-adv-x="650" 
d="M385 529q101 0 161 -77t60 -195q0 -128 -60 -201.5t-163 -73.5q-54 0 -99.5 24t-72.5 69v-78h-136v721h143v-284q53 95 167 95zM340 93q57 0 89.5 45t32.5 120q0 77 -32.5 121t-89.5 44t-92 -46.5t-35 -119.5t35 -118.5t92 -45.5z" />
    <glyph glyph-name="c" unicode="c" horiz-adv-x="604" 
d="M315 -17q-120 0 -195.5 77t-75.5 196q0 118 75.5 195t195.5 77q103 0 169 -54.5t77 -143.5h-137q-20 96 -111 96q-59 0 -92 -46t-33 -124q0 -77 34 -123.5t93 -46.5q100 0 111 114h137q-2 -95 -70.5 -156t-177.5 -61z" />
    <glyph glyph-name="d" unicode="d" horiz-adv-x="650" 
d="M432 434v284h143v-721h-136v78q-27 -45 -72.5 -69t-99.5 -24q-103 0 -163 73.5t-60 201.5q0 118 60 195t161 77q114 0 167 -95zM310 93q57 0 92 45.5t35 118.5t-35 119.5t-92 46.5t-89.5 -44t-32.5 -121q0 -75 32.5 -120t89.5 -45z" />
    <glyph glyph-name="e" unicode="e" horiz-adv-x="615" 
d="M314 -16q-122 0 -196 76.5t-74 198.5q0 118 73.5 194t189.5 76q124 0 195 -84t69 -222h-387q6 -66 41 -102.5t93 -36.5q81 0 106 71h138q-16 -77 -86.5 -124t-161.5 -47zM184 303h245q-7 60 -38.5 93.5t-80.5 33.5q-53 0 -85.5 -34t-40.5 -93z" />
    <glyph glyph-name="f" unicode="f" horiz-adv-x="381" 
d="M235 -3h-142v429h-66v90h66v46q0 83 43 119t133 38q21 1 73 -3v-98q-34 0 -52 -1q-28 -2 -41.5 -17t-13.5 -49v-35h107v-90h-107v-429z" />
    <glyph glyph-name="g" unicode="g" horiz-adv-x="627" 
d="M420 447v69h136v-467q0 -109 -66 -168.5t-185 -59.5q-108 0 -173 41.5t-76 120.5h137q12 -63 110 -63q57 0 85 30t28 83v57q-52 -75 -152 -75q-96 0 -159 67.5t-63 183.5q0 114 63 188.5t159 74.5q107 0 156 -82zM302 118q55 0 87.5 42t32.5 110q0 67 -32.5 110t-87.5 43
t-88 -41.5t-33 -110.5q0 -68 33.5 -110.5t87.5 -42.5z" />
    <glyph glyph-name="h" unicode="h" horiz-adv-x="627" 
d="M383 528q86 0 132 -50t46 -136v-345h-142v313q0 48 -23.5 74.5t-69.5 26.5q-47 0 -77.5 -32t-30.5 -79v-303h-143v721h143v-270q61 80 165 80z" />
    <glyph glyph-name="i" unicode="i" horiz-adv-x="286" 
d="M146 588q-29 0 -50 20.5t-21 49.5t20.5 48.5t50.5 19.5q28 0 48 -20t20 -48q0 -29 -20 -49.5t-48 -20.5zM214 -3h-142v519h142v-519z" />
    <glyph glyph-name="j" unicode="j" horiz-adv-x="290" 
d="M150 588q-29 0 -50 20.5t-21 49.5q0 28 21 48t50 20q28 0 48 -20t20 -48q0 -29 -20 -49.5t-48 -20.5zM75 -169q-54 0 -91 10v100q21 -3 36 -3q31 0 44 11t13 45v522h142v-527q0 -80 -34 -119t-110 -39z" />
    <glyph glyph-name="k" unicode="k" horiz-adv-x="602" 
d="M416 -3l-144 216l-56 -59v-157h-141v721h141v-397l175 195h163l-187 -199l211 -320h-162z" />
    <glyph glyph-name="l" unicode="l" horiz-adv-x="296" 
d="M221 -3h-146v721h146v-721z" />
    <glyph glyph-name="m" unicode="m" horiz-adv-x="926" 
d="M688 528q85 0 128.5 -52t43.5 -140v-339h-142v315q0 99 -83 99q-44 0 -71.5 -31.5t-27.5 -79.5v-303h-142v315q0 99 -82 99q-44 0 -71.5 -31.5t-27.5 -79.5v-303h-143v519h136v-72q59 84 165 84q107 0 144 -90q58 90 173 90z" />
    <glyph glyph-name="n" unicode="n" horiz-adv-x="622" 
d="M378 528q86 0 132 -50t46 -136v-342h-142v310q0 48 -23.5 74.5t-69.5 26.5q-47 0 -77.5 -32t-30.5 -79v-300h-143v516h136v-76q61 88 172 88z" />
    <glyph glyph-name="o" unicode="o" horiz-adv-x="627" 
d="M315 -17q-120 0 -195.5 77t-75.5 196q0 118 75 195t196 77t195 -76.5t74 -195.5t-74.5 -196t-194.5 -77zM313 81q59 0 92.5 48t33.5 127q0 78 -33.5 125.5t-92.5 47.5q-58 0 -91.5 -47.5t-33.5 -125.5q0 -79 33.5 -127t91.5 -48z" />
    <glyph glyph-name="p" unicode="p" horiz-adv-x="645" 
d="M380 529q101 0 161 -77t60 -195q0 -125 -62 -200t-165 -75q-109 0 -161 91v-244h-143v687h136v-87q56 100 174 100zM335 90q56 0 89 43.5t33 117.5q0 76 -32 119t-90 43q-57 0 -92 -45.5t-35 -117.5t35 -116t92 -44z" />
    <glyph glyph-name="q" unicode="q" horiz-adv-x="645" 
d="M439 429v87h136v-687h-143v244q-52 -91 -161 -91q-103 0 -165 75t-62 200q0 118 60 195t161 77q118 0 174 -100zM310 90q57 0 92 44t35 116t-35 117.5t-92 45.5q-58 0 -90 -43t-32 -119q0 -74 33 -117.5t89 -43.5z" />
    <glyph glyph-name="r" unicode="r" horiz-adv-x="427" 
d="M365 525q25 0 38 -6v-124q-20 7 -49 7q-68 0 -104.5 -42t-36.5 -109v-254h-143v519h136v-78q55 87 159 87z" />
    <glyph glyph-name="s" unicode="s" horiz-adv-x="572" 
d="M292 -18q-114 0 -180.5 48.5t-66.5 136.5h136q6 -94 111 -94q45 0 71 17t26 49q0 36 -32.5 51t-108.5 27q-42 6 -72 15t-58.5 26t-43 46t-14.5 70q0 72 61.5 113.5t156.5 41.5q107 0 165.5 -42t64.5 -121h-135q-9 74 -95 74q-82 0 -82 -56q0 -27 29.5 -40.5t93.5 -22.5
q49 -7 81 -16t64.5 -27t48.5 -50t16 -78q0 -82 -65 -125t-172 -43z" />
    <glyph glyph-name="t" unicode="t" horiz-adv-x="390" 
d="M255 -12q-83 0 -121.5 30.5t-38.5 106.5v301h-67v90h67v164h139v-164h107v-90h-107v-271q0 -30 15 -41.5t47 -11.5q26 0 44 5v-107q-39 -12 -85 -12z" />
    <glyph glyph-name="u" unicode="u" horiz-adv-x="593" 
d="M380 212v301h142v-516h-136v76q-61 -89 -171 -89q-86 0 -132.5 50t-46.5 136v343h143v-311q0 -48 23 -74t69 -26q47 0 78 31.5t31 78.5z" />
    <glyph glyph-name="v" unicode="v" horiz-adv-x="576" 
d="M370 -3h-163l-185 519h148l121 -368l120 368h144z" />
    <glyph glyph-name="w" unicode="w" horiz-adv-x="854" 
d="M580 172l102 344h144l-170 -519h-135l-95 356l-96 -356h-133l-169 519h147l101 -344l92 344h120z" />
    <glyph glyph-name="x" unicode="x" horiz-adv-x="605" 
d="M185 -3h-157l186 271l-168 248h164l95 -150l96 150h154l-162 -245l184 -274h-165l-112 173z" />
    <glyph glyph-name="y" unicode="y" horiz-adv-x="576" 
d="M130 -178q-32 0 -47 1v102h30q44 0 62.5 14.5t28.5 56.5l-180 519h157l107 -398l114 398h149l-172 -512q-32 -98 -90.5 -139.5t-158.5 -41.5z" />
    <glyph glyph-name="z" unicode="z" horiz-adv-x="570" 
d="M516 -3h-462v103l265 305h-248v110h428v-99l-269 -309h286v-110z" />
    <glyph glyph-name="braceleft" unicode="{" horiz-adv-x="377" 
d="M344 -29v-110h-16q-115 0 -165.5 40.5t-50.5 145.5v141q0 36 -17.5 51.5t-61.5 16.5v108q43 1 61 17t18 52v139q0 104 50.5 144.5t165.5 40.5h16v-111h-9q-50 0 -69.5 -15t-19.5 -59v-159q0 -39 -13 -62.5t-45 -40.5q30 -14 44 -36.5t14 -65.5v-162q0 -44 20 -59.5
t69 -15.5h9z" />
    <glyph glyph-name="braceright" unicode="}" horiz-adv-x="368" 
d="M23 -139v110h10q49 0 69 15.5t20 59.5v162q0 43 14 65.5t44 36.5q-32 17 -45 40.5t-13 62.5v159q0 44 -19.5 59t-69.5 15h-10v111h16q116 0 166.5 -40.5t50.5 -144.5v-139q0 -36 17.5 -52t60.5 -17v-108q-43 -1 -60.5 -16.5t-17.5 -51.5v-141q0 -105 -50.5 -145.5
t-166.5 -40.5h-16z" />
    <glyph glyph-name="uni00A0" unicode="&#xa0;" horiz-adv-x="466" 
 />
    <glyph glyph-name="cent" unicode="&#xa2;" horiz-adv-x="550" 
d="M255 -108v92q-108 8 -173.5 84t-65.5 188q0 111 65.5 186t173.5 85v69h54v-69q92 -7 150 -60.5t68 -136.5h-130q-17 78 -88 93v-335q82 15 91 112h129q-2 -90 -61.5 -149.5t-158.5 -66.5v-92h-54zM152 256q0 -67 28 -111.5t75 -55.5v334q-47 -10 -75 -54.5t-28 -112.5z
" />
    <glyph glyph-name="sterling" unicode="&#xa3;" horiz-adv-x="584" 
d="M512 164l60 -116q-67 -64 -156 -64q-54 0 -115 26t-96 26q-53 0 -113 -49l-72 106q127 87 92 203h-87v81h48q-29 55 -29 111q0 95 68.5 154t191.5 59q124 0 191.5 -63t69.5 -185h-141q-1 131 -118 131q-52 0 -79.5 -26.5t-27.5 -73.5q0 -37 33 -107h139v-81h-113
q13 -89 -60 -155q34 8 62 8q40 0 82 -16t71 -16q52 0 99 47z" />
    <glyph glyph-name="guillemotleft" unicode="&#xab;" horiz-adv-x="520" 
d="M167 254l95 -81v-128l-169 141v133l169 141v-127zM357 254l96 -81v-128l-170 141v133l170 141v-127z" />
    <glyph glyph-name="periodcentered" unicode="&#xb7;" horiz-adv-x="240" 
d="M121 307q-41 0 -64 20.5t-23 56.5q0 37 23 57t64 20t64 -20t23 -57q0 -36 -23 -56.5t-64 -20.5z" />
    <glyph glyph-name="guillemotright" unicode="&#xbb;" horiz-adv-x="520" 
d="M75 45v128l96 81l-96 79v127l170 -141v-133zM266 45v128l96 81l-96 79v127l170 -141v-133z" />
    <glyph glyph-name="multiply" unicode="&#xd7;" horiz-adv-x="611" 
d="M306 242l-146 -149l-87 86l147 149l-146 150l87 84l145 -147l145 147l88 -84l-147 -150l147 -148l-88 -85z" />
    <glyph glyph-name="divide" unicode="&#xf7;" horiz-adv-x="569" 
d="M281 452q-30 0 -50.5 20.5t-20.5 49.5t20.5 49t50.5 20q28 0 48 -20t20 -49t-20 -49.5t-48 -20.5zM518 270h-466v119h466v-119zM281 54q-30 0 -50.5 20.5t-20.5 49.5t20.5 49t50.5 20q28 0 48 -20t20 -49t-20 -49.5t-48 -20.5z" />
    <glyph glyph-name="uni060C" unicode="&#x60c;" horiz-adv-x="362" 
d="M284 298l-44 -299h-142l89 299h97z" />
    <glyph glyph-name="uni061B" unicode="&#x61b;" horiz-adv-x="323" 
d="M277 574l-45 -299h-142l89 299h98zM158 -6q-29 0 -50 20.5t-21 49.5t20.5 49t50.5 20q28 0 48 -20t20 -49t-20 -49.5t-48 -20.5z" />
    <glyph glyph-name="uni061F" unicode="&#x61f;" horiz-adv-x="595" 
d="M375 210h-131q0 56 -15 81.5t-74 63.5q-56 36 -83 74.5t-27 94.5q0 89 67 143t176 54q116 0 183.5 -60t67.5 -163h-137q0 49 -28.5 78.5t-76.5 29.5q-44 0 -72 -24t-28 -62q0 -36 19.5 -58.5t72.5 -57.5q57 -39 75 -78t11 -116zM306 -14q-41 0 -63.5 20.5t-22.5 57.5
q0 36 23 56.5t63 20.5q41 0 64.5 -20.5t23.5 -56.5q0 -37 -23.5 -57.5t-64.5 -20.5z" />
    <glyph glyph-name="uni0621" unicode="&#x621;" horiz-adv-x="519" 
d="M354 137h118v-137h-413v137h54q-21 38 -21 82q0 94 64 149t171 55q53 0 103 -19l-1 -134q-49 29 -100 29q-45 0 -71.5 -22t-26.5 -58q0 -41 29 -61t94 -21z" />
    <glyph glyph-name="uni0622" unicode="&#x622;" horiz-adv-x="288" 
d="M42 837q-33 0 -69 -31v81q39 31 69 31q24 0 71.5 -26t80.5 -26q55 0 106 44v-81q-49 -44 -106 -44q-34 0 -81.5 26t-70.5 26zM223 -1h-158v716h158v-716z" />
    <glyph glyph-name="uni0623" unicode="&#x623;" horiz-adv-x="288" 
d="M186 857h88v-77h-260v77h31q-8 22 -8 45q0 52 38 87q39 37 104 37q41 0 71 -12v-79q-26 13 -58 13q-23 0 -38 -12.5t-15 -33.5q0 -20 13 -32t34 -13zM223 -1h-158v716h158v-716z" />
    <glyph glyph-name="uni0624" unicode="&#x624;" horiz-adv-x="576" 
d="M402 613v-77h-260v77h31q-8 22 -8 45q0 52 38 87q39 37 104 37q41 0 71 -12v-79q-26 13 -58 13q-23 0 -38 -12.5t-15 -33.5q0 -20 13 -32t34 -13h88zM277 455q110 0 174.5 -63.5t64.5 -163.5v-228q-1 -56 -21.5 -102t-53 -74.5t-74 -50t-87 -28.5t-91 -10t-84.5 5v124
q40 -6 85 -0.5t83 17t63 41t25 71.5v7h-82q-106 0 -173.5 65.5t-67.5 163.5q0 97 67.5 161.5t171.5 64.5zM278 138h82v90q0 39 -23 64t-59 25q-37 0 -60.5 -24.5t-23.5 -63.5q0 -40 24 -65.5t60 -25.5z" />
    <glyph glyph-name="uni0625" unicode="&#x625;" horiz-adv-x="335" 
d="M113 715h158v-716h-158v716zM227 -242h88v-76h-95h-5h-160v76h31q-8 22 -8 45q0 52 38 88t104 36q40 0 72 -12v-79q-30 14 -59 14q-23 0 -38 -13t-15 -34q0 -20 13 -32t34 -13z" />
    <glyph glyph-name="uni0626" unicode="&#x626;" horiz-adv-x="917" 
d="M269 387v-77h-260v77h31q-8 22 -8 45q0 52 38 87q39 37 104 37q41 0 71 -12v-79q-26 13 -58 13q-23 0 -38 -12.5t-15 -33.5q0 -20 13 -32t34 -13h88zM478 327q0 -27 20 -45.5t51.5 -29.5t70.5 -20.5t77.5 -22t70 -31t51.5 -52.5t20 -80q0 -131 -111 -208.5t-289 -77.5
q-219 0 -325 122t-63 327h119q-13 -83 0.5 -141.5t51.5 -91t90 -46.5t123 -14q118 0 196 29.5t78 76.5q0 24 -26.5 38t-66 19.5t-86 19.5t-86 34.5t-66 66.5t-26.5 113q0 119 96 184.5t226 43.5q97 -13 185 -76l-53 -137q-49 32 -112 50t-116 18q-45 0 -72.5 -18.5
t-27.5 -50.5z" />
    <glyph glyph-name="uni0627" unicode="&#x627;" horiz-adv-x="288" 
d="M223 715v-716h-158v716h158z" />
    <glyph glyph-name="uni0628" unicode="&#x628;" horiz-adv-x="984" 
d="M56 371h146v-126q0 -49 34 -78.5t82 -29.5h450v299h158v-436h-619q-109 0 -180 66.5t-71 170.5v134zM519 -227q-29 0 -50 20.5t-21 49.5q0 28 21 48t50 20t48.5 -19.5t19.5 -48.5t-20 -49.5t-48 -20.5z" />
    <glyph glyph-name="uni0629" unicode="&#x629;" horiz-adv-x="567" 
d="M210 542q-29 0 -49.5 20t-20.5 49q0 28 20.5 48t49.5 20q28 0 48 -20t20 -48t-20 -48.5t-48 -20.5zM384 542q-29 0 -49.5 20t-20.5 49q0 28 20.5 48t49.5 20q28 0 48 -20t20 -48t-20 -48.5t-48 -20.5zM522 0h-238q-105 0 -173 65.5t-68 163.5q0 97 68 161.5t172 64.5
q110 0 174.5 -63.5t64.5 -163.5v-228zM284 138h82v90q0 39 -23.5 64t-59.5 25q-37 0 -60.5 -24.5t-23.5 -63.5q0 -40 24 -65.5t61 -25.5z" />
    <glyph glyph-name="uni062A" unicode="&#x62a;" horiz-adv-x="984" 
d="M410 426q-29 0 -49.5 20t-20.5 49q0 28 20.5 48t49.5 20q28 0 48 -20t20 -48t-20 -48.5t-48 -20.5zM584 426q-29 0 -49.5 20t-20.5 49q0 28 20.5 48t49.5 20q28 0 48 -20t20 -48t-20 -48.5t-48 -20.5zM56 371h146v-126q0 -49 34 -78.5t82 -29.5h450v299h158v-436h-619
q-109 0 -180 66.5t-71 170.5v134z" />
    <glyph glyph-name="uni062B" unicode="&#x62b;" horiz-adv-x="984" 
d="M495 567q-28 0 -48.5 19.5t-20.5 46.5q0 28 20.5 48t48.5 20q27 0 46.5 -20t19.5 -48q0 -27 -19.5 -46.5t-46.5 -19.5zM413 425q-29 0 -49 19t-20 46q0 29 20 48.5t49 19.5q27 0 46 -20t19 -48q0 -27 -19 -46t-46 -19zM581 424q-28 0 -48 19.5t-20 46.5q0 28 19.5 48
t48.5 20q28 0 47 -20t19 -48q0 -27 -19.5 -46.5t-46.5 -19.5zM56 371h146v-126q0 -49 34 -78.5t82 -29.5h450v299h158v-436h-619q-109 0 -180 66.5t-71 170.5v134z" />
    <glyph glyph-name="uni062C" unicode="&#x62c;" horiz-adv-x="687" 
d="M656 0h-312q-69 0 -106 -38.5t-37 -83.5q0 -57 43 -91t115 -34q93 0 178 48v-114q-100 -54 -209 -54q-124 0 -203.5 71.5t-79.5 181.5q0 103 74.5 177t205.5 74h177q0 84 -52 141t-137 57q-76 0 -134 -46v131q68 54 172 54q78 0 139 -31.5t96 -82t52.5 -108t17.5 -116.5
v-136zM357 -193q-28 0 -47.5 19t-19.5 46q0 26 19.5 45t47.5 19q26 0 45 -19t19 -45q0 -27 -19 -46t-45 -19z" />
    <glyph glyph-name="uni062D" unicode="&#x62d;" horiz-adv-x="687" 
d="M656 0h-312q-69 0 -106 -38.5t-37 -83.5q0 -57 43 -91t115 -34q93 0 178 48v-114q-100 -54 -209 -54q-124 0 -203.5 71.5t-79.5 181.5q0 103 74.5 177t205.5 74h177q0 84 -52 141t-137 57q-76 0 -134 -46v131q68 54 172 54q78 0 139 -31.5t96 -82t52.5 -108t17.5 -116.5
v-136z" />
    <glyph glyph-name="uni062E" unicode="&#x62e;" horiz-adv-x="687" 
d="M349 567q-29 0 -50 20.5t-21 49.5q0 28 21 48.5t50 20.5q28 0 48 -20t20 -49t-20 -49.5t-48 -20.5zM656 0h-312q-69 0 -106 -38.5t-37 -83.5q0 -57 43 -91t115 -34q93 0 178 48v-114q-100 -54 -209 -54q-124 0 -203.5 71.5t-79.5 181.5q0 103 74.5 177t205.5 74h177
q0 84 -52 141t-137 57q-76 0 -134 -46v131q68 54 172 54q78 0 139 -31.5t96 -82t52.5 -108t17.5 -116.5v-136z" />
    <glyph glyph-name="uni062F" unicode="&#x62f;" horiz-adv-x="540" 
d="M493 0h-446v138h285v59q-1 61 -39 92.5t-93 31.5q-61 0 -108 -28v127q67 37 152 37q104 0 176.5 -65.5t72.5 -182.5v-209z" />
    <glyph glyph-name="uni0630" unicode="&#x630;" horiz-adv-x="540" 
d="M246 567q-29 0 -50 20.5t-21 49.5q0 28 21 48.5t50 20.5q28 0 48 -20t20 -49t-20 -49.5t-48 -20.5zM493 0h-446v138h285v59q-1 61 -39 92.5t-93 31.5q-61 0 -108 -28v127q67 37 152 37q104 0 176.5 -65.5t72.5 -182.5v-209z" />
    <glyph glyph-name="uni0631" unicode="&#x631;" horiz-adv-x="354" 
d="M25 -252q-30 0 -60 6l-1 144q21 -4 41 -6q61 -3 92 31.5t31 94.5l1 405h155v-412q0 -121 -69.5 -193.5t-189.5 -69.5z" />
    <glyph glyph-name="uni0632" unicode="&#x632;" horiz-adv-x="354" 
d="M200 556q-29 0 -50 20.5t-21 49.5q0 28 21 48.5t50 20.5q28 0 48 -20t20 -49t-20 -49.5t-48 -20.5zM25 -252q-30 0 -60 6l-1 144q21 -4 41 -6q61 -3 92 31.5t31 94.5l1 405h155v-412q0 -121 -69.5 -193.5t-189.5 -69.5z" />
    <glyph glyph-name="uni0633" unicode="&#x633;" horiz-adv-x="1225" 
d="M1010 138v300h157v-438h-195q-82 0 -122 73q-41 -73 -122 -73h-102q-20 -101 -102.5 -168t-189.5 -67q-124 0 -210 80.5t-86 197.5v182h134v-162q0 -62 44 -106t110 -44t111.5 45t45.5 105l-1 341h150v-266h62q22 0 35.5 14.5t13.5 36.5v215h159v-216q0 -22 14 -36
t36 -14h58z" />
    <glyph glyph-name="uni0634" unicode="&#x634;" horiz-adv-x="1225" 
d="M818 674q-28 0 -48.5 19.5t-20.5 46.5q0 28 20.5 48t48.5 20q27 0 46.5 -20t19.5 -48q0 -27 -19.5 -46.5t-46.5 -19.5zM736 532q-29 0 -49 19t-20 46q0 29 20 48.5t49 19.5q27 0 46 -20t19 -48q0 -27 -19 -46t-46 -19zM836 597q0 29 20 48.5t48 19.5t47 -20t19 -48
q0 -27 -19.5 -46.5t-46.5 -19.5q-28 0 -48 19.5t-20 46.5zM1010 138v300h157v-438h-195q-82 0 -122 73q-41 -73 -122 -73h-102q-20 -101 -102.5 -168t-189.5 -67q-124 0 -210 80.5t-86 197.5v182h134v-162q0 -62 44 -106t110 -44t111.5 45t45.5 105l-1 341h150v-266h62
q22 0 35.5 14.5t13.5 36.5v215h159v-216q0 -22 14 -36t36 -14h58z" />
    <glyph glyph-name="uni0635" unicode="&#x635;" horiz-adv-x="1312" 
d="M1025 472q107 0 167.5 -75.5t60.5 -201.5v-195h-627q-20 -101 -103 -169t-190 -68q-120 0 -207.5 79t-87.5 194v184h134v-164q0 -59 46 -101.5t107 -42.5q67 0 112 44t45 105v301h150v-225h42q40 145 135 240t216 95zM796 137h302v46q0 72 -30 106.5t-82 34.5
q-64 0 -117 -48t-73 -139z" />
    <glyph glyph-name="uni0636" unicode="&#x636;" horiz-adv-x="1312" 
d="M958 567q-29 0 -50 20.5t-21 49.5q0 28 21 48.5t50 20.5q28 0 48 -20t20 -49t-20 -49.5t-48 -20.5zM1025 472q107 0 167.5 -75.5t60.5 -201.5v-195h-627q-20 -101 -103 -169t-190 -68q-120 0 -207.5 79t-87.5 194v184h134v-164q0 -59 46 -101.5t107 -42.5q67 0 112 44
t45 105v301h150v-225h42q40 145 135 240t216 95zM796 137h302v46q0 72 -30 106.5t-82 34.5q-64 0 -117 -48t-73 -139z" />
    <glyph glyph-name="uni0637" unicode="&#x637;" horiz-adv-x="807" 
d="M520 472q107 0 168 -75.5t61 -201.5v-195h-711v137h108v583h158v-343q97 95 216 95zM304 137h290v46q0 71 -30 106t-82 35q-55 0 -103.5 -36.5t-74.5 -106.5v-44z" />
    <glyph glyph-name="uni0638" unicode="&#x638;" horiz-adv-x="807" 
d="M520 472q107 0 168 -75.5t61 -201.5v-195h-711v137h108v583h158v-343q97 95 216 95zM506 581q-29 0 -50 20.5t-21 49.5q0 28 21 48.5t50 20.5q28 0 48 -20t20 -49t-20 -49.5t-48 -20.5zM304 137h290v46q0 71 -30 106t-82 35q-55 0 -103.5 -36.5t-74.5 -106.5v-44z" />
    <glyph glyph-name="uni0639" unicode="&#x639;" horiz-adv-x="625" 
d="M574 0h-226q-60 -1 -99.5 -38t-41.5 -85q0 -58 44.5 -91t118.5 -33q95 0 178 47v-114q-100 -53 -214 -53q-124 0 -203 69.5t-79 183.5q0 65 35.5 122.5t97.5 88.5q-79 50 -79 145q0 104 79 163t201 59q65 0 125 -17v-120q-57 18 -107 18q-67 0 -106.5 -28.5t-39.5 -83.5
q0 -44 34 -70t84 -26h198v-137z" />
    <glyph glyph-name="uni063A" unicode="&#x63a;" horiz-adv-x="625" 
d="M355 547q-29 0 -50 20.5t-21 49.5q0 28 21 48.5t50 20.5q28 0 48 -20t20 -49t-20 -49.5t-48 -20.5zM574 0h-226q-60 -1 -99.5 -38t-41.5 -85q0 -58 44.5 -91t118.5 -33q95 0 178 47v-114q-100 -53 -214 -53q-124 0 -203 69.5t-79 183.5q0 65 35.5 122.5t97.5 88.5
q-79 50 -79 145q0 104 79 163t201 59q65 0 125 -17v-120q-57 18 -107 18q-67 0 -106.5 -28.5t-39.5 -83.5q0 -44 34 -70t84 -26h198v-137z" />
    <glyph glyph-name="uni0640" unicode="&#x640;" horiz-adv-x="184" 
d="M190 0h-195v137h194z" />
    <glyph glyph-name="uni0641" unicode="&#x641;" horiz-adv-x="1080" 
d="M785 559q-29 0 -50 20.5t-21 49.5q0 28 21 48.5t50 20.5q28 0 48 -20t20 -49t-20 -49.5t-48 -20.5zM778 463q112 0 177.5 -64.5t65.5 -166.5v-232h-714q-109 0 -180 66.5t-71 170.5v143h146v-135q0 -49 34 -78t82 -29h236q-20 45 -20 96q0 98 69 163.5t175 65.5zM779 138
h86v95q0 41 -24 67t-62 26q-39 0 -64 -26t-25 -66q0 -42 25.5 -69t63.5 -27z" />
    <glyph glyph-name="uni0642" unicode="&#x642;" horiz-adv-x="836" 
d="M449 551q-29 0 -49.5 20t-20.5 49q0 28 20.5 48t49.5 20q28 0 48 -20t20 -48t-20 -48.5t-48 -20.5zM623 551q-29 0 -49.5 20t-20.5 49q0 28 20.5 48t49.5 20q28 0 48 -20t20 -48t-20 -48.5t-48 -20.5zM538 456q112 0 176 -64.5t64 -166.5v-160q0 -148 -102 -243t-282 -95
q-157 0 -256.5 93t-99.5 231v175h148v-152q0 -85 60 -141.5t170 -56.5q76 0 131.5 34t72.5 91h-75q-108 0 -176 64.5t-68 164.5q0 95 66.5 160.5t170.5 65.5zM545 138h78v88q0 41 -23 66.5t-61 25.5q-37 0 -59.5 -25.5t-22.5 -62.5q0 -42 24 -67t64 -25z" />
    <glyph glyph-name="uni0643" unicode="&#x643;" horiz-adv-x="978" 
d="M762 137v565h158v-703h-613q-109 0 -180 66.5t-71 170.5v153h146v-145q0 -49 34 -78t82 -29h444zM619 369h-95h-5h-161v77h32q-8 21 -8 44q0 53 38 88q38 36 104 36q40 0 71 -11v-80q-28 14 -58 14q-23 0 -38 -13t-15 -34q0 -18 12 -30t31 -14h92v-77z" />
    <glyph glyph-name="uni0644" unicode="&#x644;" horiz-adv-x="688" 
d="M332 -235q-124 0 -205.5 80t-81.5 198v182h140v-164q0 -62 41 -104.5t106 -42.5q61 0 105 42.5t44 101.5l-1 647h150v-647q0 -121 -88 -207t-210 -86z" />
    <glyph glyph-name="uni0645" unicode="&#x645;" horiz-adv-x="757" 
d="M481 450q96 0 164.5 -70.5t68.5 -168.5q0 -99 -68.5 -169t-164.5 -70q-68 0 -124 37t-85 98q-59 -22 -59 -129v-345h-151v310q0 250 189 296q10 89 76 150t154 61zM478 116q40 0 67 27t27 66t-27.5 66t-66.5 27q-38 0 -65 -27t-27 -66t26.5 -66t65.5 -27z" />
    <glyph glyph-name="uni0646" unicode="&#x646;" horiz-adv-x="726" 
d="M340 392q-29 0 -50 20.5t-21 49.5q0 28 21 48.5t50 20.5q28 0 48 -20t20 -49t-20 -49.5t-48 -20.5zM362 -237q-125 0 -210.5 80.5t-85.5 198.5v181h135v-161q0 -63 43.5 -107t109.5 -44q68 0 112.5 43t44.5 114l-1 360h151v-364q0 -131 -87.5 -216t-211.5 -85z" />
    <glyph glyph-name="uni0647" unicode="&#x647;" horiz-adv-x="567" 
d="M522 0h-238q-105 0 -173 65.5t-68 163.5q0 97 68 161.5t172 64.5q110 0 174.5 -63.5t64.5 -163.5v-228zM284 138h82v90q0 39 -23.5 64t-59.5 25q-37 0 -60.5 -24.5t-23.5 -63.5q0 -40 24 -65.5t61 -25.5z" />
    <glyph glyph-name="uni0648" unicode="&#x648;" horiz-adv-x="576" 
d="M277 455q110 0 174.5 -63.5t64.5 -163.5v-228q-1 -56 -21.5 -102t-53 -74.5t-74 -50t-87 -28.5t-91 -10t-84.5 5v124q40 -6 85 -0.5t83 17t63 41t25 71.5v7h-82q-106 0 -173.5 65.5t-67.5 163.5q0 97 67.5 161.5t171.5 64.5zM278 138h82v90q0 39 -23 64t-59 25
q-37 0 -60.5 -24.5t-23.5 -63.5q0 -40 24 -65.5t60 -25.5z" />
    <glyph glyph-name="uni0649" unicode="&#x649;" horiz-adv-x="917" 
d="M839 46q0 -131 -111 -208.5t-289 -77.5q-219 0 -325 122t-63 327h119q-13 -83 0.5 -141.5t51.5 -91t90 -46.5t123 -14q118 0 196 29.5t78 76.5q0 24 -26.5 38t-66 19.5t-86 19.5t-86 34.5t-66 66.5t-26.5 113q0 119 96 184.5t226 43.5q97 -13 185 -76l-53 -137
q-49 32 -112 50t-116 18q-45 0 -72.5 -18.5t-27.5 -50.5q0 -27 20 -45.5t51.5 -29.5t70.5 -20.5t77.5 -22t70 -31t51.5 -52.5t20 -80z" />
    <glyph glyph-name="uni064A" unicode="&#x64a;" horiz-adv-x="917" 
d="M839 46q0 -131 -111 -208.5t-289 -77.5q-219 0 -325 122t-63 327h119q-13 -83 0.5 -141.5t51.5 -91t90 -46.5t123 -14q118 0 196 29.5t78 76.5q0 24 -26.5 38t-66 19.5t-86 19.5t-86 34.5t-66 66.5t-26.5 113q0 119 96 184.5t226 43.5q97 -13 185 -76l-53 -137
q-49 32 -112 50t-116 18q-45 0 -72.5 -18.5t-27.5 -50.5q0 -27 20 -45.5t51.5 -29.5t70.5 -20.5t77.5 -22t70 -31t51.5 -52.5t20 -80zM366 -458q-30 0 -51 21t-21 50t21 49t51 20q28 0 48.5 -20t20.5 -49t-20.5 -50t-48.5 -21zM529 -458q-30 0 -51 21t-21 50t21 49t51 20
q29 0 49 -20t20 -49t-20.5 -50t-48.5 -21z" />
    <glyph glyph-name="uni064B" unicode="&#x64b;" 
d="M28 731l200 36l1 -3v-44l-201 -37v48zM28 634l200 35l1 -2v-45l-201 -37v49z" />
    <glyph glyph-name="uni064C" unicode="&#x64c;" 
d="M233 714l-185 -55v87q0 21 -22 21q-13 1 -29 -2v52q19 6 42 6q30 0 48.5 -18t18.5 -47v-22l45 13q-16 21 -16 45q-2 32 20 53t57 21q32 0 54.5 -23t22.5 -55q0 -27 -15 -47.5t-41 -28.5zM212 760q20 11 20 29q0 26 -23 26q-24 0 -22 -25q3 -25 25 -30z" />
    <glyph glyph-name="uni064D" unicode="&#x64d;" 
d="M15 -144l200 36l1 -4v-44l-201 -37v49zM15 -242l200 36l1 -3v-45l-201 -36v48z" />
    <glyph glyph-name="uni064E" unicode="&#x64e;" 
d="M27 746l200 34l2 -3v-45l-202 -34v48z" />
    <glyph glyph-name="uni064F" unicode="&#x64f;" 
d="M176 714l-179 -52v60l96 27q-14 19 -16 45q-1 32 20.5 53t57.5 21q32 0 54.5 -23t22.5 -55q0 -27 -15 -47.5t-41 -28.5zM152 815q-25 0 -23 -25q3 -25 25 -30q21 10 21 29q0 26 -23 26z" />
    <glyph glyph-name="uni0650" unicode="&#x650;" 
d="M18 -264l201 34l1 -3v-44l-202 -35v48z" />
    <glyph glyph-name="uni0651" unicode="&#x651;" 
d="M70 606q-32 0 -52.5 21t-20.5 54v46l57 14v-60q0 -18 16 -18q18 0 18 21v58l57 16v-66q0 -16 16 -16q18 0 18 22v59l58 16v-75q0 -36 -18 -57.5t-51 -21.5q-29 0 -45 17q-19 -30 -53 -30z" />
    <glyph glyph-name="uni0652" unicode="&#x652;" 
d="M86 625q-36 0 -62 26t-26 63q0 36 26 60.5t62 24.5t61 -24t25 -61t-25 -63t-61 -26zM85 681q13 0 22 9t9 22q0 14 -9 23.5t-22 9.5q-12 0 -21 -10t-9 -23t8.5 -22t21.5 -9z" />
    <glyph glyph-name="uni0653" unicode="&#x653;" 
d="M54 686q-33 0 -69 -31v81q39 31 69 31q24 0 71.5 -26t80.5 -26q55 0 106 44v-81q-49 -44 -106 -44q-34 0 -81.5 26t-70.5 26z" />
    <glyph glyph-name="uni0654" unicode="&#x654;" 
d="M168 595h90v-77h-95h-3h-162v77h31q-8 22 -8 45q0 52 38 87q39 37 104 37q41 0 72 -12v-79q-27 13 -59 13q-23 0 -38 -12.5t-15 -33.5q0 -19 12.5 -31t32.5 -14z" />
    <glyph glyph-name="uni0655" unicode="&#x655;" 
d="M148 -210h90v-77h-95h-3h-162v77h31q-8 22 -8 45q0 52 38 87q39 37 104 37q41 0 72 -12v-79q-27 13 -59 13q-23 0 -38 -12.5t-15 -33.5q0 -19 12.5 -31t32.5 -14z" />
    <glyph glyph-name="uni0656" unicode="&#x656;" 
d="M55 -547h-55v233h55v-233z" />
    <glyph glyph-name="uni0660" unicode="&#x660;" horiz-adv-x="377" 
d="M180 361l119 -116l-118 -112l-112 112z" />
    <glyph glyph-name="uni0661" unicode="&#x661;" horiz-adv-x="290" 
d="M224 -1h-137q0 160 -1.5 224t-18.5 183t-54 240l137 45q23 -74 38 -153t22 -129.5t10.5 -144t3.5 -124v-141.5z" />
    <glyph glyph-name="uni0662" unicode="&#x662;" horiz-adv-x="448" 
d="M244 -1h-138q9 328 -59 621l48 80l350 -2v-143h-248q56 -265 47 -556z" />
    <glyph glyph-name="uni0663" unicode="&#x663;" horiz-adv-x="597" 
d="M475 536v163h122v-189q0 -63 -35 -97.5t-97 -34.5q-88 0 -118 80q-31 -74 -107 -74q-7 0 -11 1q24 -148 21 -386h-130q4 180 -16.5 331.5t-76.5 342.5l119 29l44 -164q8 -35 38 -35q18 0 30 10t12 26v160h127v-162q0 -16 10.5 -26.5t28.5 -10.5q19 0 29 10.5t10 25.5z
" />
    <glyph glyph-name="uni0664" unicode="&#x664;" horiz-adv-x="558" 
d="M445 0l-156 -1q-101 0 -165.5 53.5t-64.5 141.5q0 56 35 105q28 40 79 70q-35 17 -57 49.5t-22 70.5q0 104 86 162.5t233 66.5v-129q-32 -2 -55 -6.5t-33.5 -8.5t-38.5 -15q-31 -12 -50 -30.5t-19 -39.5q0 -32 30.5 -53.5t81.5 -13.5l108 19v-127l-82 -16
q-75 -16 -105 -36q-44 -26 -44 -61q0 -33 24.5 -50.5t67.5 -17.5h147v-133z" />
    <glyph glyph-name="uni0665" unicode="&#x665;" horiz-adv-x="593" 
d="M307 21q-132 0 -191 64t-59 201q0 106 38 188q32 71 89 112t129 41q110 0 179 -100q68 -99 68 -241q0 -265 -253 -265zM306 165q122 0 122 132q0 75 -31 128q-32 56 -85 56q-57 0 -91 -58q-31 -53 -31 -131q0 -127 116 -127z" />
    <glyph glyph-name="uni0666" unicode="&#x666;" horiz-adv-x="536" 
d="M9 698l318 1l62 -60q-10 -381 32 -640h-130q-52 255 -32 556h-250v143z" />
    <glyph glyph-name="uni0667" unicode="&#x667;" horiz-adv-x="551" 
d="M365 -2h-184q-32 322 -139 656l133 45q83 -274 97 -553h2q14 281 95 553l140 -46q-114 -354 -144 -655z" />
    <glyph glyph-name="uni0668" unicode="&#x668;" horiz-adv-x="546" 
d="M181 689h184q30 -302 144 -658l-140 -47q-81 275 -95 557h-2q-14 -280 -97 -557l-133 46q107 334 139 659z" />
    <glyph glyph-name="uni0669" unicode="&#x669;" horiz-adv-x="562" 
d="M481 -1h-138q-27 110 -31 272h-57q-106 0 -163.5 53t-57.5 155q0 106 54 164.5t157 58.5q101 0 150.5 -63t49.5 -166q0 -290 36 -474zM249 408h65v78q0 79 -73 79q-39 0 -60.5 -22.5t-21.5 -59.5q0 -36 24 -55.5t66 -19.5z" />
    <glyph glyph-name="uni066A" unicode="&#x66a;" horiz-adv-x="645" 
d="M127 718l101 -100l-101 -97l-97 97zM546 714l-303 -714h-131l304 714h130zM516 187l102 -100l-101 -97l-97 98z" />
    <glyph glyph-name="uni066B" unicode="&#x66b;" horiz-adv-x="600" 
d="M232 88l1 1q6 -83 -32 -149.5t-110 -102.5l-26 34q68 39 96 101q4 13 7 17q-12 -2 -20 -2q-36 0 -61 27.5t-25 67.5t25 67.5t61 27.5q33 0 56 -24.5t28 -64.5z" />
    <glyph glyph-name="uni066C" unicode="&#x66c;" horiz-adv-x="600" 
d="M63 -129l44 299h142l-89 -299h-97z" />
    <glyph glyph-name="uni066D" unicode="&#x66d;" horiz-adv-x="580" 
d="M240 463l-77 -107l-66 48l77 104l-122 40l28 76l116 -41v131h85v-131l117 41l28 -76l-122 -40l77 -104l-64 -48z" />
    <glyph glyph-name="uni066E" unicode="&#x66e;" horiz-adv-x="984" 
d="M56 371h146v-126q0 -49 34 -78.5t82 -29.5h450v299h158v-436h-619q-109 0 -180 66.5t-71 170.5v134z" />
    <glyph glyph-name="uni066F" unicode="&#x66f;" horiz-adv-x="836" 
d="M538 456q112 0 176 -64.5t64 -166.5v-160q0 -148 -102 -243t-282 -95q-157 0 -256.5 93t-99.5 231v175h148v-152q0 -85 60 -141.5t170 -56.5q76 0 131.5 34t72.5 91h-75q-108 0 -176 64.5t-68 164.5q0 95 66.5 160.5t170.5 65.5zM545 138h78v88q0 41 -23 66.5t-61 25.5
q-37 0 -59.5 -25.5t-22.5 -62.5q0 -42 24 -67t64 -25z" />
    <glyph glyph-name="uni0670" unicode="&#x670;" 
d="M61 622h-60q0 14 0.5 45t0 45t-2 37t-6 40.5t-12.5 35.5h60q8 -18 12.5 -35.5t6 -40.5t2 -37t0 -45t-0.5 -45z" />
    <glyph glyph-name="uni0671" unicode="&#x671;" horiz-adv-x="288" 
d="M184 947q38 0 60.5 -28t22.5 -71v-77h-208v1h-6v-1h-42v58h32l-2 115h65l1 -39q37 42 77 42zM110 829h92v20q0 35 -34 35q-17 0 -33.5 -14t-24.5 -29v-12zM223 -1h-158v716h158v-716z" />
    <glyph glyph-name="uni06A1" unicode="&#x6a1;" horiz-adv-x="1080" 
d="M778 463q112 0 177.5 -64.5t65.5 -166.5v-232h-714q-109 0 -180 66.5t-71 170.5v143h146v-135q0 -49 34 -78t82 -29h236q-20 45 -20 96q0 98 69 163.5t175 65.5zM779 138h86v95q0 41 -24 67t-62 26q-39 0 -64 -26t-25 -66q0 -42 25.5 -69t63.5 -27z" />
    <glyph glyph-name="uni06A4" unicode="&#x6a4;" horiz-adv-x="1080" 
d="M784 679q-28 0 -48.5 19.5t-20.5 46.5q0 28 20.5 48t48.5 20q27 0 46.5 -20t19.5 -48q0 -27 -19.5 -46.5t-46.5 -19.5zM702 537q-29 0 -49 19t-20 46q0 29 20 48.5t49 19.5q27 0 46 -20t19 -48q0 -27 -19 -46t-46 -19zM802 602q0 28 20 48t48 20t47 -20t19 -48
q0 -27 -19.5 -46.5t-46.5 -19.5q-28 0 -48 19.5t-20 46.5zM778 463q112 0 177.5 -64.5t65.5 -166.5v-232h-714q-109 0 -180 66.5t-71 170.5v143h146v-135q0 -49 34 -78t82 -29h236q-20 45 -20 96q0 98 69 163.5t175 65.5zM779 138h86v95q0 41 -24 67t-62 26q-39 0 -64 -26
t-25 -66q0 -42 25.5 -69t63.5 -27z" />
    <glyph glyph-name="uni06BA" unicode="&#x6ba;" horiz-adv-x="726" 
d="M362 -237q-125 0 -210.5 80.5t-85.5 198.5v181h135v-161q0 -63 43.5 -107t109.5 -44q68 0 112.5 43t44.5 114l-1 360h151v-364q0 -131 -87.5 -216t-211.5 -85z" />
    <glyph glyph-name="endash" unicode="&#x2013;" horiz-adv-x="548" 
d="M35 194v122h477v-122h-477z" />
    <glyph glyph-name="emdash" unicode="&#x2014;" horiz-adv-x="904" 
d="M35 194v122h833v-122h-833z" />
    <glyph glyph-name="quoteleft" unicode="&#x2018;" horiz-adv-x="346" 
d="M262 715l-44 -299h-143l89 299h98z" />
    <glyph glyph-name="quoteright" unicode="&#x2019;" horiz-adv-x="346" 
d="M41 412l45 299h142l-89 -299h-98z" />
    <glyph glyph-name="quotesinglbase" unicode="&#x201a;" horiz-adv-x="337" 
d="M94 -160l44 299h143l-89 -299h-98z" />
    <glyph glyph-name="quotedblleft" unicode="&#x201c;" horiz-adv-x="566" 
d="M296 716l-45 -299h-142l89 299h98zM515 716l-44 -299h-142l89 299h97z" />
    <glyph glyph-name="quotedblright" unicode="&#x201d;" horiz-adv-x="564" 
d="M28 415l44 299h142l-89 -299h-97zM246 415l44 299h142l-89 -299h-97z" />
    <glyph glyph-name="quotedblbase" unicode="&#x201e;" horiz-adv-x="564" 
d="M41 -160l45 299h142l-89 -299h-98zM260 -160l44 299h142l-89 -299h-97z" />
    <glyph glyph-name="bullet" unicode="&#x2022;" horiz-adv-x="503" 
d="M252 187q-56 0 -95 38.5t-39 94.5t39 95t95 39q55 0 94 -39.5t39 -94.5t-39 -94t-94 -39z" />
    <glyph glyph-name="ellipsis" unicode="&#x2026;" horiz-adv-x="853" 
d="M183 0q-41 0 -64.5 20.5t-23.5 57.5q0 36 23.5 56t64.5 20t63.5 -20t22.5 -56q0 -37 -22.5 -57.5t-63.5 -20.5zM432 0q-41 0 -64.5 20.5t-23.5 57.5q0 36 23.5 56t64.5 20t64 -20t23 -56q0 -37 -23 -57.5t-64 -20.5zM678 0q-41 0 -64.5 20.5t-23.5 57.5q0 36 23.5 56
t64.5 20t64 -20t23 -56q0 -37 -23 -57.5t-64 -20.5z" />
    <glyph glyph-name="guilsinglleft" unicode="&#x2039;" horiz-adv-x="329" 
d="M109 254l96 -81v-128l-170 141v133l170 141v-127z" />
    <glyph glyph-name="guilsinglright" unicode="&#x203a;" horiz-adv-x="329" 
d="M85 45v128l95 81l-95 79v127l169 -141v-133z" />
    <glyph glyph-name="Euro" unicode="&#x20ac;" horiz-adv-x="596" 
d="M363 -17q-114 0 -192 72t-102 194h-57v60h50q-1 10 -1 33v27h-49v59h56q22 124 101.5 198.5t193.5 74.5q119 0 189.5 -67.5t79.5 -177.5h-147q-7 56 -38.5 92t-85.5 36q-57 0 -93.5 -41t-47.5 -115h168v-59h-174v-31v-29h174v-60h-167q13 -71 49.5 -110t92.5 -39
q60 0 93 41.5t36 100.5h145q-6 -114 -77.5 -186.5t-196.5 -72.5z" />
    <glyph glyph-name="minus" unicode="&#x2212;" horiz-adv-x="603" 
d="M68 267v125h467v-125h-467z" />
    <glyph glyph-name="dotabovear" 
d="M67 649q-29 0 -50 20.5t-21 49.5q0 28 21 48.5t50 20.5q28 0 48 -20t20 -49t-20 -49.5t-48 -20.5z" />
    <glyph glyph-name="dotbelowar" 
d="M67 -325q-29 0 -50 20.5t-21 49.5q0 28 21 48t50 20t48.5 -19.5t19.5 -48.5t-20 -49.5t-48 -20.5z" />
    <glyph glyph-name="dotcenterar" 
d="M71 204q-30 0 -51 20.5t-21 49.5t21 49t51 20q28 0 48 -20.5t20 -48.5q0 -29 -20 -49.5t-48 -20.5z" />
    <glyph glyph-name="twodotshorizontalabovear" 
d="M57 650q-29 0 -49.5 20t-20.5 49q0 28 20.5 48t49.5 20q28 0 48 -20t20 -48t-20 -48.5t-48 -20.5zM231 650q-29 0 -49.5 20t-20.5 49q0 28 20.5 48t49.5 20q28 0 48 -20t20 -48t-20 -48.5t-48 -20.5z" />
    <glyph glyph-name="twodotshorizontalbelowar" 
d="M59 -277q-30 0 -51 21t-21 50t21 49t51 20q29 0 49 -20.5t20 -48.5q0 -29 -20.5 -50t-48.5 -21zM222 -277q-30 0 -51 21t-21 50t21 49t51 20q28 0 48.5 -20.5t20.5 -48.5q0 -29 -20.5 -50t-48.5 -21z" />
    <glyph glyph-name="threedotsdownabovear" 
d="M52 626q-24 0 -41 17.5t-17 40.5t17 39.5t41 16.5q23 0 39.5 -16.5t16.5 -39.5q0 -24 -16.5 -41t-39.5 -17zM192 626q-24 0 -41 17.5t-17 40.5t17 39.5t41 16.5q23 0 40 -16.5t17 -39.5q0 -24 -17 -41t-40 -17zM121 509q-25 0 -42 17t-17 41q0 23 17 39.5t42 16.5
q23 0 39.5 -16.5t16.5 -39.5q0 -24 -16.5 -41t-39.5 -17z" />
    <glyph glyph-name="threedotsdownbelowar" 
d="M58 -261q-29 0 -50 20.5t-21 49.5q0 28 20.5 47.5t50.5 19.5q28 0 47.5 -19.5t19.5 -47.5q0 -29 -19.5 -49.5t-47.5 -20.5zM214 -261q-29 0 -49.5 20.5t-20.5 49.5q0 28 20.5 47.5t49.5 19.5q28 0 48 -19.5t20 -47.5q0 -29 -20 -49.5t-48 -20.5zM134 -417
q-29 0 -49.5 20.5t-20.5 48.5t20.5 47.5t49.5 19.5q28 0 48 -19.5t20 -47.5q0 -29 -20 -49t-48 -20z" />
    <glyph glyph-name="threedotsupabovear" 
d="M115 738q-28 0 -48.5 19.5t-20.5 46.5q0 28 20.5 48t48.5 20q27 0 46.5 -20t19.5 -48q0 -27 -19.5 -46.5t-46.5 -19.5zM33 596q-29 0 -49 19t-20 46q0 29 20 48.5t49 19.5q27 0 46 -20t19 -48q0 -27 -19 -46t-46 -19zM201 595q-28 0 -48 19.5t-20 46.5q0 29 19.5 48.5
t48.5 19.5q28 0 47 -20t19 -48q0 -27 -19.5 -46.5t-46.5 -19.5z" />
    <glyph glyph-name="threedotsupbelowar" 
d="M116 -213q-24 0 -40.5 16t-16.5 39t16.5 40t40.5 17q22 0 38.5 -17t16.5 -40t-16 -39t-39 -16zM48 -332q-24 0 -41 16.5t-17 39.5t17 39.5t41 16.5q23 0 39 -16.5t16 -39.5t-16 -39.5t-39 -16.5zM188 -332q-24 0 -40.5 16t-16.5 39q0 24 16.5 40.5t40.5 16.5
q23 0 39 -16.5t16 -40.5q0 -23 -16.5 -39t-38.5 -16z" />
    <glyph glyph-name="waslaar" 
d="M193 688q38 0 60.5 -28t22.5 -71v-76h-256v58h32l-2 114h65l1 -39q37 42 77 42zM119 571h92v19q0 36 -34 36q-17 0 -33.5 -14t-24.5 -29v-12z" />
    <glyph glyph-name="uni0654064F" 
d="M174 757l-179 -52v60l96 27q-14 19 -16 45q-1 32 20.5 53t57.5 21q32 0 54.5 -23t22.5 -55q0 -27 -15 -47.5t-41 -28.5zM150 858q-25 0 -23 -25q3 -25 25 -30q21 11 21 29q0 26 -23 26zM168 524h88v-75h-93h-3h-158v75h30q-8 21 -8 44q0 50 37 85q38 35 102 35
q39 0 69 -11v-77q-26 13 -57 13q-22 0 -36.5 -12t-14.5 -33q0 -19 12 -30.5t32 -13.5z" />
    <glyph glyph-name="uni0654064C" 
d="M173 756l-185 -55v87q0 21 -22 21q-13 1 -29 -2v52q19 6 42 6q30 0 48.5 -18t18.5 -47v-22l45 13q-16 21 -16 45q-2 32 20 53t57 21q32 0 54.5 -23t22.5 -55q0 -27 -15 -47.5t-41 -28.5zM152 802q20 11 20 29q0 26 -23 26q-24 0 -22 -25q3 -25 25 -30zM147 517h88v-75
h-93h-3h-158v75h30q-7 18 -7 44q0 51 36 85q38 35 102 35q43 0 70 -11v-77q-27 13 -58 13q-22 0 -36.5 -12t-14.5 -33q0 -19 12 -30.5t32 -13.5z" />
    <glyph glyph-name="uni0654064E" 
d="M6 759l200 34l2 -3v-45l-202 -34v48zM147 510h88v-75h-93h-3h-158v75h30q-7 18 -7 44q0 50 36 85q38 35 102 35q43 0 70 -11v-77q-27 13 -58 13q-22 0 -36.5 -12t-14.5 -33q0 -19 12 -30.5t32 -13.5z" />
    <glyph glyph-name="uni0654064B" 
d="M7 830l200 36l1 -3v-44l-201 -37v48zM7 733l200 35l1 -2v-45l-201 -37v49zM150 479h88v-75h-93h-3h-158v75h31q-8 21 -8 44q0 51 37 85q38 35 101 35q39 0 70 -11v-77q-26 13 -57 13q-22 0 -36.5 -12t-14.5 -33q0 -19 11.5 -30.5t31.5 -13.5z" />
    <glyph glyph-name="uni06540652" 
d="M126 702q-36 0 -62 26t-26 63q0 36 26 60.5t62 24.5t61 -24t25 -61t-25 -63t-61 -26zM125 758q13 0 22 9t9 22q0 14 -9 23.5t-22 9.5q-12 0 -21 -10t-9 -23t8.5 -22t21.5 -9zM154 489h88v-74h-93h-3h-158v74h30q-8 22 -8 44q0 50 37 85q37 36 102 36q41 0 69 -12v-77
q-26 13 -57 13q-22 0 -36.5 -12t-14.5 -33q0 -19 12 -30.5t32 -13.5z" />
    <glyph glyph-name="uni06550650" 
d="M148 -213h88v-75h-93h-3h-158v75h31q-8 21 -8 43q0 51 37 85q38 36 101 36q40 0 70 -12v-77q-26 13 -57 13q-22 0 -36.5 -12t-14.5 -33q0 -19 11.5 -30.5t31.5 -12.5zM-5 -415l200 34l2 -3v-44l-202 -35v48z" />
    <glyph glyph-name="uni0655064D" 
d="M148 -213h88v-75h-93h-3h-158v75h31q-8 21 -8 43q0 51 37 85q38 36 101 36q40 0 70 -12v-77q-26 13 -57 13q-22 0 -36.5 -12t-14.5 -33q0 -19 11.5 -30.5t31.5 -12.5zM-4 -394l200 36l1 -3v-45l-201 -36v48zM-4 -492l200 36l1 -3v-45l-201 -36v48z" />
    <glyph glyph-name="uni06510670" 
d="M150 714h-60q0 12 0.5 40t0 40.5t-2 33t-6 36t-12.5 31.5h60q8 -16 12.5 -31.5t6 -36t2 -33t0 -40.5t-0.5 -40zM70 521q-32 0 -52.5 21.5t-20.5 53.5v46l57 14v-60q0 -18 16 -18q18 0 18 21v58l57 16v-66q0 -16 16 -16q18 0 18 22v60l58 15v-75q0 -36 -18 -57.5
t-51 -21.5q-29 0 -45 17q-21 -30 -53 -30z" />
    <glyph glyph-name="uni0651064F" 
d="M181 759l-179 -52v60l96 27q-14 19 -16 45q-1 32 21 53.5t57 21.5q31 0 54 -23.5t23 -55.5q0 -26 -15 -46.5t-41 -29.5zM157 860q-25 0 -23 -25q3 -23 25 -30q21 11 21 29q0 26 -23 26zM70 542q-32 0 -52.5 21.5t-20.5 54.5v45l57 14v-59q0 -19 16 -19q18 0 18 22v58
l57 15v-66q0 -16 16 -16q18 0 18 23v59l58 15v-74q0 -36 -18 -58t-51 -22q-29 0 -45 17q-21 -30 -53 -30z" />
    <glyph glyph-name="uni0651064C" 
d="M296 655l-186 -55v88q0 19 -22 21q-14 0 -29 -3v53q21 5 42 5q30 0 48.5 -18t18.5 -47v-21l45 12q-14 19 -16 45q-1 32 20.5 53t57.5 21q31 0 53.5 -23t22.5 -55q0 -26 -15 -47t-40 -29zM274 701q21 11 21 29q0 26 -24 26t-22 -25q3 -23 25 -30zM179 449q-32 0 -52.5 21
t-20.5 54v46l57 14v-60q0 -18 16 -18q18 0 18 21v58l58 16v-66q0 -16 15 -16q19 0 19 22v59l57 16v-75q0 -35 -18 -57t-50 -22q-29 0 -46 17q-18 -30 -53 -30z" />
    <glyph glyph-name="uni0651064E" 
d="M-3 833l200 34l2 -3v-45l-202 -34v48zM49 606q-32 0 -52.5 21t-20.5 54v46l57 14v-60q0 -18 16 -18q18 0 18 21v58l57 16v-66q0 -16 16 -16q18 0 18 22v59l58 16v-75q0 -35 -18 -57t-50 -22q-30 0 -46 17q-18 -30 -53 -30z" />
    <glyph glyph-name="uni0651064B.1" 
d="M-2 874l200 36l1 -3v-44l-201 -37v48zM-2 777l200 35l1 -2v-45l-201 -37v49zM49 550q-32 0 -52.5 21.5t-20.5 54.5v45l57 15v-60q0 -19 16 -19q18 0 18 22v58l57 16v-67q0 -15 16 -15q18 0 18 22v59l58 16v-75q0 -36 -18 -58t-50 -22q-30 0 -46 17q-19 -30 -53 -30z" />
    <glyph glyph-name="uni06510650" 
d="M100 817q-32 0 -52.5 21t-20.5 54v46l57 14v-60q0 -18 16 -18q18 0 18 21v58l57 16v-66q0 -16 16 -16q18 0 18 22v59l58 16v-75q0 -36 -18 -57.5t-51 -21.5q-29 0 -45 17q-20 -30 -53 -30zM47 718l201 34l1 -2v-45l-202 -35v48z" />
    <glyph glyph-name="uni0651064D" 
d="M101 -418q-32 0 -52.5 21t-20.5 54v46l57 14v-60q0 -18 16 -18q18 0 18 21v58l57 16v-66q0 -16 16 -16q18 0 18 22v59l58 16v-75q0 -36 -18 -57.5t-51 -21.5q-29 0 -45 17q-20 -30 -53 -30zM45 -487l200 36l1 -3v-44l-201 -37v48zM45 -584l200 35l1 -2v-45l-201 -37v49z
" />
    <glyph glyph-name="Sad" horiz-adv-x="582" 
d="M354 472q107 0 168 -75.5t61 -201.5v-195h-583v125q37 149 133.5 248t220.5 99zM125 137h302v46q0 72 -30 106.5t-82 34.5q-64 0 -117 -48t-73 -139z" />
    <glyph glyph-name="_waw" horiz-adv-x="546" 
d="M485 0h-237q-106 0 -174 65.5t-68 163.5q0 97 68 161.5t172 64.5q110 0 174.5 -63.5t64.5 -163.5v-228zM247 138h82v90q0 39 -23.5 64t-59.5 25t-59.5 -24.5t-23.5 -63.5q0 -40 23.5 -65.5t60.5 -25.5z" />
    <glyph glyph-name="_NOON" horiz-adv-x="592" 
d="M294 -237q-125 0 -210.5 80.5t-85.5 198.5v181h135v-161q0 -63 43.5 -107t109.5 -44q68 0 112.5 43t44.5 114l-1 360h151v-364q0 -131 -87.5 -216t-211.5 -85z" />
    </font>
</defs>
</svg>
